<svg width="29" height="28" viewBox="0 0 29 28" fill="none" xmlns="http://www.w3.org/2000/svg">
<g clip-path="url(#clip0)">
<path d="M14.6406 28C22.3726 28 28.6406 21.732 28.6406 14C28.6406 6.26801 22.3726 0 14.6406 0C6.90864 0 0.640625 6.26801 0.640625 14C0.640625 21.732 6.90864 28 14.6406 28Z" fill="#235390"/>
<path d="M28.6406 14C28.6406 13.1188 28.5583 12.2569 28.4026 11.4209L22.3457 5.35074C19.2521 2.15704 14.6925 4.80179 14.5912 4.8416C14.4871 4.80069 9.67426 2.00753 6.58316 5.62828L7.96243 7.01193C6.39695 7.90443 4.39971 9.53368 3.98485 12.168L6.10929 14.2962C5.9525 14.7594 5.83011 15.2508 5.77554 15.7495L8.2589 18.1776C8.15964 18.3451 8.07039 18.5283 7.99257 18.7285L10.3271 21.0733H9.54536C8.21099 21.0733 7.00458 21.8685 6.47849 23.0946L5.74294 24.8084C5.77822 24.8379 5.81393 24.8663 5.84947 24.8951C5.88037 24.92 5.91116 24.9451 5.94228 24.9698C5.99554 25.012 6.04908 25.0539 6.10311 25.0952C6.10732 25.0984 6.11154 25.1017 6.11575 25.1049C6.177 25.1517 6.23863 25.198 6.30048 25.244L6.3001 25.2449C8.62979 26.9756 11.5155 28 14.6406 28C22.3726 28 28.6406 21.732 28.6406 14Z" fill="#235390"/>
<path d="M21.5459 11.3955L25.1976 12.168C24.4954 7.7087 19.258 6.12867 19.258 6.12867L22.5993 5.62833C19.5082 2.00753 14.6953 4.80069 14.5912 4.8416C14.4871 4.80069 9.67426 2.00753 6.58316 5.62828L9.92446 6.12861C9.92446 6.12861 4.68709 7.70864 3.98485 12.1679L7.63655 11.3955C7.63655 11.3955 6.02136 13.5022 5.77559 15.7494C5.77559 15.7494 7.94964 16.0938 9.73961 16.8783C9.0039 17.1972 8.36625 17.7673 7.99262 18.7284C7.99262 18.7284 11.9956 19.9161 12.9963 20.8846H14.5913H16.1862C17.1869 19.9161 21.1899 18.7284 21.1899 18.7284C20.8162 17.7673 20.1786 17.1972 19.4429 16.8783C21.2328 16.0938 23.4069 15.7494 23.4069 15.7494C23.1611 13.5022 21.5459 11.3955 21.5459 11.3955Z" fill="white"/>
<path d="M23.407 15.7495C23.407 15.7495 21.2327 16.094 19.4427 16.8782C20.1788 17.1971 20.8165 17.7675 21.19 18.7283C21.19 18.7283 17.1869 19.9161 16.1861 20.8847H14.6406V4.81637C15.1667 4.5402 19.6609 2.18645 22.5993 5.62848L19.2579 6.12887C19.2579 6.12887 24.4953 7.70879 25.1975 12.168L21.546 11.3953C21.546 11.3953 23.1609 13.5024 23.407 15.7495Z" fill="#FFF5CB"/>
<path d="M17.002 18.7305H12.2792V24.6887H17.002V18.7305Z" fill="#FFC473"/>
<path d="M17.002 18.7305H14.6406V24.6887H17.002V18.7305Z" fill="#FFAA20"/>
<path d="M20.2048 11.5517C19.9705 8.10132 17.0279 6.14307 14.5911 6.14307C12.1543 6.14307 9.21179 8.10132 8.9774 11.5517C8.34685 11.6698 7.89934 12.2591 7.96951 12.907L8.07811 13.9096C8.15178 14.5898 8.76854 15.086 9.44869 15.0123L9.56583 14.9997C10.9582 18.624 13.2051 19.557 14.5912 19.769C15.9773 19.557 18.2242 18.6239 19.6165 14.9997L19.7337 15.0123C20.4138 15.086 21.0306 14.5898 21.1042 13.9096L21.2128 12.907C21.2829 12.2591 20.8354 11.6698 20.2048 11.5517Z" fill="#FFDBA9"/>
<path d="M21.2131 12.907L21.1044 13.9098C21.0304 14.5899 20.414 15.0859 19.7339 15.0124L19.6163 14.9997C18.2243 18.624 15.9773 19.5568 14.5912 19.7688V6.14307C16.9948 6.14307 19.8905 8.04827 20.1941 11.4116C20.1985 11.4601 20.2019 11.5066 20.2049 11.5517C20.8356 11.6696 21.2831 12.2592 21.2131 12.907Z" fill="#FFC473"/>
<path d="M13.7386 12.0488H10.8441V13.303H13.7386V12.0488Z" fill="#FFC473"/>
<path d="M14.591 12.0488V16.0352H15.8452V13.303H18.5774V12.0488H14.591Z" fill="#FFA91F"/>
<path d="M23.36 24.9533C20.9679 26.8603 17.9371 28 14.6406 28C11.344 28 8.31323 26.8603 5.9212 24.9533C5.98738 23.1027 7.31956 21.5594 9.07339 21.1689C9.09144 21.1651 9.11003 21.1613 9.12863 21.1575C9.14722 21.1536 9.16527 21.1493 9.18386 21.146C9.19097 21.1443 9.19808 21.1432 9.20464 21.1421C9.21886 21.1389 9.23417 21.1361 9.24894 21.1334C9.25222 21.1329 9.25495 21.1323 9.25823 21.1318C9.27081 21.1296 9.28339 21.1274 9.29597 21.1263C9.32113 21.1219 9.34573 21.1181 9.37144 21.1143C9.37581 21.1137 9.38128 21.1126 9.3862 21.1121C9.39222 21.111 9.39823 21.1104 9.4048 21.1093C9.41902 21.1077 9.43323 21.1055 9.448 21.1039C9.45019 21.1033 9.45292 21.1033 9.45511 21.1028C9.46112 21.1022 9.46605 21.1011 9.47206 21.1011C9.47917 21.1 9.48738 21.0989 9.49503 21.0984C9.53222 21.094 9.56995 21.0907 9.60769 21.0875C9.60988 21.0875 9.61152 21.0869 9.6137 21.0869C9.62573 21.0858 9.63777 21.0847 9.65034 21.0836C9.65253 21.0836 9.65581 21.0831 9.65855 21.0831C9.67987 21.082 9.70066 21.0804 9.72198 21.0793C9.75808 21.0771 9.79527 21.0754 9.83245 21.0743C9.86964 21.0738 9.90683 21.0732 9.94456 21.0732H19.3366C19.3683 21.0732 19.4 21.0738 19.4312 21.0743H19.4487C19.4553 21.0743 19.4624 21.0749 19.4695 21.0754C19.4733 21.0754 19.4777 21.0754 19.4821 21.076C19.5078 21.0765 19.5335 21.0776 19.5586 21.0793H19.5592C19.5805 21.0804 19.6013 21.082 19.6226 21.0831C19.6253 21.0831 19.6286 21.0836 19.6308 21.0836C19.6434 21.0847 19.6554 21.0858 19.6675 21.0869C19.6696 21.0869 19.6713 21.0875 19.6735 21.0875C19.7117 21.0902 19.7495 21.0935 19.7861 21.0984C19.7938 21.0989 19.802 21.1 19.8091 21.1011C19.8151 21.1011 19.82 21.1022 19.826 21.1028C19.8282 21.1033 19.831 21.1033 19.8332 21.1039C19.8479 21.1055 19.8621 21.1077 19.8764 21.1093C19.8829 21.1104 19.8889 21.111 19.895 21.1121C19.8993 21.1126 19.9042 21.1132 19.9081 21.1143H19.9097C19.948 21.1197 19.9852 21.1257 20.0229 21.1318C20.0262 21.1323 20.0289 21.1329 20.0322 21.1334C20.047 21.1361 20.0623 21.1389 20.0765 21.1421C20.0995 21.146 20.1225 21.1509 20.1454 21.1553C20.1596 21.1586 20.1733 21.1613 20.187 21.1646C20.1941 21.1657 20.2012 21.1673 20.2078 21.1689C21.9616 21.5594 23.2938 23.1027 23.36 24.9533Z" fill="#FFDBA9"/>
<path d="M23.36 24.9533C20.968 26.8603 17.9372 28 14.6406 28V21.0732H19.3366C19.3684 21.0732 19.4001 21.0738 19.4313 21.0743H19.4488C19.4553 21.0743 19.4624 21.0749 19.4695 21.0754C19.4734 21.0754 19.4777 21.0754 19.4821 21.076C19.5078 21.0765 19.5335 21.0776 19.5587 21.0793H19.5592C19.5805 21.0804 19.6013 21.082 19.6227 21.0831C19.6254 21.0831 19.6287 21.0836 19.6309 21.0836C19.6434 21.0847 19.6555 21.0858 19.6675 21.0869C19.6697 21.0869 19.6713 21.0875 19.6735 21.0875C19.7118 21.0902 19.7495 21.0935 19.7862 21.0984C19.7938 21.0989 19.802 21.1 19.8091 21.1011C19.8152 21.1011 19.8201 21.1022 19.8261 21.1028C19.8283 21.1033 19.831 21.1033 19.8332 21.1039C19.848 21.1055 19.8622 21.1077 19.8764 21.1093C19.883 21.1104 19.889 21.111 19.895 21.1121C19.8994 21.1126 19.9043 21.1132 19.9081 21.1143H19.9098C19.948 21.1197 19.9852 21.1257 20.023 21.1318C20.0263 21.1323 20.029 21.1329 20.0323 21.1334C20.047 21.1361 20.0623 21.1389 20.0766 21.1421C20.0995 21.146 20.1225 21.1509 20.1455 21.1553C20.1597 21.1586 20.1734 21.1613 20.187 21.1646C20.1941 21.1657 20.2012 21.1673 20.2078 21.1689C21.9616 21.5594 23.2938 23.1027 23.36 24.9533Z" fill="#FFC473"/>
<path d="M18.4367 21.0732V27.4788C17.9544 27.6144 17.4622 27.7249 16.9601 27.8086C16.4937 27.8862 16.0195 27.9409 15.5388 27.9715C15.2419 27.9907 14.9427 28 14.6408 28C14.339 28 14.0398 27.9907 13.7429 27.9715C13.2622 27.9409 12.788 27.8862 12.3215 27.8086C11.8195 27.7249 11.3273 27.6144 10.845 27.4788V21.0732H18.4367Z" fill="#00D9E0"/>
<path d="M18.4365 21.0732V27.4788C17.9541 27.6144 17.462 27.7249 16.9599 27.8086C16.4934 27.8862 16.0193 27.9409 15.5386 27.9715C15.2416 27.9907 14.9425 28 14.6406 28V21.0732H18.4365Z" fill="#00989D"/>
<path d="M13.7427 27.9715C13.262 27.9409 12.7879 27.8862 12.3214 27.8086C9.9277 27.4093 7.7402 26.4031 5.92129 24.9533C5.86168 24.9057 5.80207 24.8576 5.74301 24.8084L6.47856 23.0945C7.00465 21.8684 8.21106 21.0732 9.54543 21.0732H11.8439L13.7427 27.9715Z" fill="white"/>
<path d="M23.5384 24.8084C23.4793 24.8576 23.4197 24.9057 23.3601 24.9533C21.5412 26.4031 19.3537 27.4093 16.96 27.8086C16.4935 27.8862 16.0194 27.9409 15.5387 27.9715L17.4374 21.0732H19.7359C21.0703 21.0732 22.2767 21.8684 22.8028 23.0945L23.5384 24.8084Z" fill="#FFF5CB"/>
<path d="M12.3213 27.8086L12.5663 27.2261L9.32608 22.7385L11.8439 21.0732L13.7426 27.9715C13.2619 27.9409 12.7878 27.8862 12.3213 27.8086Z" fill="#FFF5CB"/>
<path d="M16.715 27.2261L16.96 27.8086C16.4935 27.8862 16.0194 27.9409 15.5387 27.9715L17.4374 21.0732L19.9552 22.7385L16.715 27.2261Z" fill="#FFDF47"/>
<path d="M19.9058 8.47661C18.7526 4.86723 14.5912 4.92192 14.5912 4.92192C14.5912 4.92192 10.4298 4.86723 9.27669 8.47661L8.92812 11.5517L12.2422 8.47661L14.5912 10.6641L16.9401 8.47661L20.2543 11.5517L19.9058 8.47661Z" fill="white"/>
<path d="M20.2543 11.5516L16.9402 8.4765L14.6406 10.6175V4.92236C15.1153 4.93002 18.827 5.1001 19.9054 8.4765L20.2543 11.5516Z" fill="#FFF5CB"/>
<path d="M17.9481 17.3202C17.9481 17.3202 17.4061 17.3354 16.3103 16.6064C15.487 16.0588 14.8548 16.4625 14.5912 16.6973C14.3276 16.4625 13.6955 16.0588 12.8722 16.6064C11.7764 17.3354 11.2344 17.3202 11.2344 17.3202C11.2344 17.3202 13.2269 18.6285 14.5912 17.3778C15.9556 18.6286 17.9481 17.3202 17.9481 17.3202Z" fill="white"/>
<path d="M17.9481 17.3199C17.9481 17.3199 16.0029 18.5974 14.6406 17.4216V16.6549C14.9283 16.4192 15.5348 16.0905 16.3102 16.6062C17.4062 17.3352 17.9481 17.3199 17.9481 17.3199Z" fill="#FFF5CB"/>
<path d="M10.2061 12.1807V14.3151C10.2061 14.9325 10.7066 15.433 11.324 15.433H13.1357C13.5195 15.433 13.8604 15.1875 13.9821 14.8235L14.2621 13.9865C14.3678 13.6704 14.815 13.6704 14.9208 13.9865L15.2007 14.8235C15.3224 15.1875 15.6633 15.433 16.0472 15.433H17.8588C18.4763 15.433 18.9768 14.9325 18.9768 14.3151V12.1807H10.2061Z" fill="#49BBEE"/>
<path d="M18.9765 12.1807V14.3151C18.9765 14.9326 18.4761 15.433 17.8586 15.433H16.047C15.6631 15.433 15.3224 15.1875 15.2006 14.8236L14.9206 13.9866C14.8676 13.8285 14.7295 13.7493 14.5913 13.7493V12.1807H18.9765Z" fill="#009AE5"/>
<path d="M17.8587 15.7082H16.047C15.5441 15.7082 15.099 15.3878 14.9395 14.9108L14.6595 14.0737C14.6486 14.0412 14.6257 14.0247 14.5913 14.0247C14.557 14.0247 14.534 14.0412 14.5231 14.0738L14.2432 14.9108C14.0837 15.3878 13.6386 15.7083 13.1356 15.7083H11.3239C10.5557 15.7083 9.93063 15.0833 9.93063 14.315V11.9053H19.252V14.315C19.252 15.0832 18.627 15.7082 17.8587 15.7082ZM14.5914 13.4739C14.8637 13.4739 15.0955 13.6408 15.1818 13.899L15.4618 14.7361C15.5461 14.9882 15.7813 15.1575 16.0471 15.1575H17.8588C18.3234 15.1575 18.7014 14.7795 18.7014 14.315V12.4559H10.4814V14.315C10.4814 14.7795 10.8594 15.1575 11.324 15.1575H13.1356C13.4014 15.1575 13.6366 14.9882 13.721 14.7361L14.0009 13.8991C14.0873 13.6408 14.319 13.4739 14.5914 13.4739Z" fill="white"/>
<path d="M14.5915 11.9053V12.456H18.7013V14.3151C18.7013 14.7798 18.3234 15.1577 17.8588 15.1577H16.0472C15.7815 15.1577 15.5463 14.9884 15.4618 14.7362L15.1819 13.8991C15.0956 13.6409 14.8639 13.4741 14.5915 13.4741V14.0248C14.6259 14.0248 14.6488 14.0413 14.6596 14.0739L14.9396 14.911C15.099 15.3878 15.5442 15.7083 16.0471 15.7083H17.8587C18.627 15.7083 19.252 15.0833 19.252 14.3151V11.9053L14.5915 11.9053Z" fill="#FFF5CB"/>
<path d="M19.252 11.3926H9.93047V11.9912H19.252V11.3926Z" fill="#3A4DE3"/>
<path d="M19.252 11.3926H14.5915V11.9912H19.252V11.3926Z" fill="#1C2EDE"/>
</g>
<defs>
<clipPath id="clip0">
<rect width="28" height="28" fill="white" transform="translate(0.640625)"/>
</clipPath>
</defs>
</svg>
