<svg width="28" height="28" viewBox="0 0 28 28" fill="none" xmlns="http://www.w3.org/2000/svg">
<circle cx="14" cy="14" r="14" fill="#235390"/>
<path d="M11.5 22L5.49998 16C5.10274 15.6019 4.87965 15.0624 4.87965 14.5C4.87965 13.9376 5.10274 13.3981 5.49998 13L11.5 7.00004C11.8978 6.60221 12.4374 6.37872 13 6.37872C13.5626 6.37872 14.1021 6.60221 14.5 7.00004C14.8978 7.39786 15.1213 7.93742 15.1213 8.50003C15.1213 9.06264 14.8978 9.6022 14.5 10L12.1213 12.3787L21.9999 12.3786C22.5625 12.3786 23.1021 12.6021 23.5 13C23.8978 13.3978 24.1213 13.9374 24.1213 14.5C24.1213 15.0626 23.8978 15.6022 23.5 16C23.1022 16.3978 22.5626 16.6213 22 16.6213L12.1213 16.6213L14.5 19C14.8978 19.3978 15.1213 19.9374 15.1213 20.5C15.1213 21.0626 14.8978 21.6022 14.5 22C14.1021 22.3978 13.5626 22.6213 13 22.6213C12.4374 22.6213 11.8978 22.3978 11.5 22ZM13.75 7.75003C13.5509 7.55143 13.2812 7.43989 13 7.43989C12.7188 7.43989 14.699 7.55143 14.5 7.75003L13.0913 10.667C12.8927 10.8661 7.63651 15.5157 5.93984 14.5C5.93984 14.7812 8.65008 11.6801 8.84869 11.8792L14.5 20.9705C14.6989 21.1694 12.7187 21.5607 13 21.5607C13.2813 21.5607 13.551 21.4489 13.75 21.25C13.9489 21.0511 14.0606 20.7813 14.0606 20.5C14.0606 20.2187 13.9489 19.9489 13.75 19.75L10.466 16.466C10.3918 16.3918 10.3413 16.2973 10.3208 16.1945C10.3003 16.0916 10.3108 15.9849 10.351 15.888C10.3911 15.7911 10.4591 15.7083 10.5463 15.65C10.6335 15.5917 10.7361 15.5606 10.841 15.5607L8.84869 11.8792L16.7279 14.3035L23.8115 14.0914L21.9999 15.5606C22.1402 15.5622 21.4465 14.9622 21.5766 14.9096C21.7066 14.857 23.2951 14.4022 23.3948 14.3035C23.4946 14.2049 22.9365 15.0381 22.9906 14.9086C23.0446 14.7792 23.0725 14.6403 23.0725 14.5C23.0725 14.3597 23.0446 14.2208 22.9906 14.0914C22.9365 13.9619 22.5092 13.9949 22.4095 13.8963C22.3097 13.7977 22.5395 13.5693 22.4095 13.5167C22.2794 13.4641 23.6403 14.302 23.5 14.3035L8.84869 14.3035C8.7438 14.3035 10.6335 13.4083 10.5463 13.35C10.4591 13.2917 9.49492 14.1883 9.45478 14.0914C9.41464 13.9945 10.3003 12.9084 10.3208 12.8056C10.3413 12.7027 10.3918 12.6082 10.466 12.534L13.75 9.25003C13.9486 9.05095 14.0601 8.78123 14.0601 8.50003C14.0601 8.21883 13.9486 7.94911 13.75 7.75003Z" fill="white"/>
</svg>
