<svg width="30" height="29" viewBox="0 0 30 29" fill="none" xmlns="http://www.w3.org/2000/svg">
<g clip-path="url(#clip0)">
<path d="M15.0233 28.9689C22.7898 28.9689 29.0858 22.6729 29.0858 14.9064C29.0858 7.13997 22.7898 0.843994 15.0233 0.843994C7.25685 0.843994 0.960876 7.13997 0.960876 14.9064C0.960876 22.6729 7.25685 28.9689 15.0233 28.9689Z" fill="#235390"/>
<path d="M29.0857 14.9065C29.0857 13.5582 28.8955 12.2543 28.5413 11.0199L22.8556 5.33423L7.46661 24.7544L11.1367 28.4245C12.3711 28.7788 13.675 28.9689 15.0233 28.9689C22.7897 28.9689 29.0857 22.673 29.0857 14.9065Z" fill="#235390"/>
<path d="M21.8589 25.25H8.39115C7.62598 25.25 6.99994 24.6076 6.99994 23.8226V6.42771C6.99994 5.6426 7.62598 5.0003 8.39115 5.0003H11.6899L15.125 6.33252L18.5601 5.00024H21.8589C22.6241 5.00024 23.2501 5.6426 23.2501 6.42765V23.8225C23.2501 24.6077 22.6241 25.25 21.8589 25.25Z" fill="#00C2F3"/>
<path d="M23.2503 6.42752V23.8225C23.2503 24.6074 22.6242 25.25 21.8591 25.25H15.1252V6.3325L18.5602 5H21.8591C22.6242 5 23.2503 5.64263 23.2503 6.42752Z" fill="#00C2F3"/>
<path d="M8.78442 7.10645H21.4656V22.7984H8.78442V7.10645Z" fill="white"/>
<path d="M15.1252 7.10645H21.4658V22.7982H15.1252V7.10645Z" fill="#F1F4F6"/>
<path d="M17.0063 9.18279H13.2438C12.387 9.18279 11.6899 8.48578 11.6899 7.62899V5.00024H18.5601V7.62899C18.5601 8.48578 17.8631 9.18279 17.0063 9.18279Z" fill="#FAD87C"/>
<path d="M18.5602 5V7.62874C18.5602 8.48558 17.8632 9.18259 17.0064 9.18259H15.1252V5H18.5602Z" fill="#FEBE40"/>
<path d="M10.6655 11.0471H13.1365V12.6949H10.6655V11.0471Z" fill="#FF127F"/>
<path d="M15.1252 11.0471H19.5393V12.6949H15.1252V11.0471Z" fill="#FF127F"/>
<path d="M17.0681 14.6348H19.5391V16.2825H17.0681V14.6348Z" fill="#FF127F"/>
<path d="M10.6655 14.6348H15.1249V16.2825H10.6655V14.6348Z" fill="#FF127F"/>
<path d="M10.6655 18.2227H13.1365V19.8704H10.6655V18.2227Z" fill="#FF127F"/>
<path d="M15.1252 18.2227H19.5393V19.8704H15.1252V18.2227Z" fill="#FF127F"/>
</g>
<defs>
<clipPath id="clip0">
<rect width="28.1249" height="28.1249" fill="white" transform="translate(0.960876 0.843994)"/>
</clipPath>
</defs>
</svg>
