<svg width="30" height="29" viewBox="0 0 30 29" fill="none" xmlns="http://www.w3.org/2000/svg">
<g clip-path="url(#clip0)">
<path d="M15.0234 28.1874C22.7899 28.1874 29.0859 21.8914 29.0859 14.125C29.0859 6.35847 22.7899 0.0625 15.0234 0.0625C7.25694 0.0625 0.960968 6.35847 0.960968 14.125C0.960968 21.8914 7.25694 28.1874 15.0234 28.1874Z" fill="#235390"/>
<path d="M11.1565 24.31C12.2544 24.6535 14.0937 28.1874 15.3046 28.1874C22.0546 28.1874 26.836 23.9687 28.8047 17.2187C28.5235 16.375 28.5235 16.0937 27.961 15.25L23.7423 10.1875L19.2423 5.96874L16.1485 4.28125L7.42981 15.5312L8.40826 18.8725L7.99231 21.1562L11.1565 24.31Z" fill="#235390"/>
<path d="M15.1959 13.182C15.9632 13.182 16.5852 12.56 16.5852 11.7927C16.5852 11.0253 15.9632 10.4033 15.1959 10.4033C14.4286 10.4033 13.8065 11.0253 13.8065 11.7927C13.8065 12.56 14.4286 13.182 15.1959 13.182Z" fill="white"/>
<path d="M16.5852 11.7929C16.5852 12.56 15.9631 13.182 15.1956 13.182V10.4033C15.9631 10.4033 16.5852 11.0254 16.5852 11.7929Z" fill="#F1F4F6"/>
<path d="M17.0091 16.7047C16.6925 15.9208 16.3517 15.7149 16.3517 14.3777V13.2969H14.0394V14.3777C14.0394 15.7149 13.6986 15.9207 13.382 16.7047C13.1791 17.2071 13.0753 17.747 13.0753 17.9564H17.3158C17.3158 17.747 17.212 17.2071 17.0091 16.7047Z" fill="white"/>
<path d="M17.3158 17.9564H15.1956V13.2969H16.3518V14.3777C16.3518 15.7149 16.6926 15.9207 17.0091 16.7047C17.212 17.2071 17.3158 17.747 17.3158 17.9564Z" fill="#F1F4F6"/>
<path d="M13.2054 12.5264H17.186V14.0671H13.2054V12.5264Z" fill="#DAEAEC"/>
<path d="M15.1956 12.5264H17.1858V14.0672H15.1956V12.5264Z" fill="#CEDFE2"/>
<path d="M12.0923 17.8599H18.2993V20.008H12.0923V17.8599Z" fill="#DAEAEC"/>
<path d="M15.1956 17.8599H18.2991V20.008H15.1956V17.8599Z" fill="#CEDFE2"/>
<path d="M25.4933 15.901V12.7979H23.6001C23.3784 11.5941 22.9035 10.478 22.2329 9.50665L23.5744 8.16519L21.3802 5.97099L20.0388 7.3124C19.0674 6.64186 17.9513 6.16692 16.7475 5.94521V4.05206V4H13.6444V4.05206V5.94525C12.4405 6.16697 11.3244 6.6419 10.3531 7.31245L9.01164 5.97104L6.81744 8.16524L8.1589 9.50665C7.48835 10.478 7.01342 11.5941 6.7917 12.798H4.89847V15.9011H6.79166C7.01337 17.1049 7.48831 18.221 8.15885 19.1924L6.8174 20.5337L9.0116 22.7279L10.353 21.3865C11.3243 22.0571 12.4405 22.532 13.6443 22.7537V24.5948V24.6469H16.7474V24.5948V22.7537C17.9512 22.532 19.0673 22.0571 20.0387 21.3865L21.3801 22.7279L23.5743 20.5337L22.2329 19.1923C22.9035 18.221 23.3784 17.1049 23.6001 15.901H25.4933ZM14.5701 20.7105C11.3383 20.395 8.80416 17.6628 8.80416 14.3495C8.80416 10.8251 11.6715 7.95776 15.1959 7.95776C18.7203 7.95776 21.5876 10.8251 21.5876 14.3495C21.5876 17.6628 19.0535 20.395 15.8217 20.7106H14.5701V20.7105Z" fill="#00E4EF"/>
<path d="M23.5996 12.798C23.3777 11.594 22.903 10.4781 22.2323 9.50688L23.5737 8.16551L21.3798 5.97113L20.0384 7.31249C19.0667 6.64181 17.9509 6.1671 16.7468 5.94521V4H15.1954V7.95771C18.7198 7.95771 21.5871 10.8251 21.5871 14.3494C21.5871 17.6628 19.0531 20.3951 15.821 20.7107H15.1954V24.647H16.7468V22.7537C17.9509 22.5322 19.0667 22.0571 20.0384 21.3864L21.3798 22.7282L23.5737 20.5338L22.2323 19.1925C22.903 18.2212 23.3777 17.1049 23.5996 15.9009H25.493V12.798H23.5996Z" fill="#5ECBF1"/>
<path d="M15.1955 21.0791C11.4705 21.0791 8.4399 18.0486 8.4399 14.3235C8.4399 10.5984 11.4705 7.56787 15.1955 7.56787C18.9206 7.56787 21.9511 10.5985 21.9511 14.3235C21.9511 18.0485 18.9206 21.0791 15.1955 21.0791ZM15.1955 8.96658C12.2417 8.96658 9.8386 11.3697 9.8386 14.3235C9.8386 17.2773 12.2417 19.6804 15.1955 19.6804C18.1493 19.6804 20.5524 17.2773 20.5524 14.3235C20.5524 11.3697 18.1493 8.96658 15.1955 8.96658Z" fill="#5ECBF1"/>
<path d="M15.1954 7.56787V8.96653C18.1491 8.96653 20.5522 11.3696 20.5522 14.3234C20.5522 17.2771 18.1491 19.6802 15.1954 19.6802V21.0788C18.9203 21.0788 21.9509 18.0483 21.9509 14.3234C21.9509 10.5985 18.9203 7.56787 15.1954 7.56787Z" fill="#0FA7DA"/>
</g>
<defs>
<clipPath id="clip0">
<rect width="28.1249" height="28.1249" fill="white" transform="translate(0.960968 0.0625)"/>
</clipPath>
</defs>
</svg>
