<svg width="29" height="29" viewBox="0 0 29 29" fill="none" xmlns="http://www.w3.org/2000/svg">
<g clip-path="url(#clip0)">
<path d="M14.6602 28.2734C22.4029 28.2734 28.6797 21.9967 28.6797 14.2539C28.6797 6.51113 22.4029 0.234375 14.6602 0.234375C6.91738 0.234375 0.640625 6.51113 0.640625 14.2539C0.640625 21.9967 6.91738 28.2734 14.6602 28.2734Z" fill="#235390"/>
<path d="M28.6799 14.2538C28.6799 13.2023 28.5632 12.1782 28.3438 11.1928L21.6568 4.50586H13.2287L7.66388 14.1422L11.3317 17.8326L9.29212 24.1637L13.3394 28.211C13.7744 28.2516 14.2148 28.2733 14.6603 28.2733C22.4031 28.2733 28.6799 21.9966 28.6799 14.2538Z" fill="#235390"/>
<path d="M21.6568 4.50586H13.2287L7.66388 14.1422H12.5206L9.29217 24.1637L19.9268 12.2571H16.3989L21.6568 4.50586Z" fill="#FFE670"/>
<path d="M16.3989 12.2571H19.9268L14.6602 18.1535V4.50586H21.6568L16.3989 12.2571Z" fill="#FEC000"/>
</g>
<defs>
<clipPath id="clip0">
<rect width="28.0391" height="28.0391" fill="white" transform="translate(0.640625 0.234375)"/>
</clipPath>
</defs>
</svg>
