<svg width="31" height="15" viewBox="0 0 31 15" fill="none" xmlns="http://www.w3.org/2000/svg">
<path d="M21.1879 4.60319C22.2938 3.91848 23.6319 3.88767 24.7678 4.52031C25.8727 5.13568 26.5325 6.24946 26.5325 7.50003C26.5325 8.75038 25.8727 9.86439 24.7678 10.4798C23.6319 11.1126 22.2935 11.0814 21.1879 10.3969C19.5272 9.36831 18.073 7.97277 16.9833 6.36128C15.5747 4.27823 13.6968 2.47508 11.5524 1.147C11.5519 1.14676 11.5517 1.14653 11.5512 1.1463C10.3513 0.403233 8.98446 0.00683929 7.59825 0.000302765C6.29514 -0.00786785 5.00044 0.32853 3.85235 0.967942C1.44014 2.31143 0 4.75329 0 7.50003C0 10.2468 1.44014 12.6886 3.85212 14.0321C4.98971 14.6657 6.2718 15 7.56183 15C7.57397 15 7.58611 15 7.59825 14.9998C8.98422 14.993 10.3513 14.5968 11.5512 13.8538L11.5535 13.8521C12.9302 12.9994 14.1959 11.9502 15.2992 10.7576C14.6843 10.0929 14.1191 9.38419 13.6151 8.63879C13.349 8.24543 13.0612 7.86538 12.7542 7.50003C11.8031 8.63179 10.666 9.61927 9.4105 10.3969C9.41027 10.3969 9.41027 10.3969 9.41027 10.3969H9.4105C8.30489 11.0816 6.96654 11.1124 5.83058 10.4798C4.72568 9.86439 4.06595 8.75038 4.06595 7.50003C4.06595 6.24946 4.72568 5.13568 5.83058 4.52008C6.96654 3.88744 8.30489 3.91848 9.4105 4.60319C9.4105 4.60319 9.41073 4.60319 9.41073 4.60342C11.0715 5.63175 12.5254 7.0273 13.6151 8.63879C15.023 10.7209 16.9004 12.5234 19.0439 13.8514C19.0451 13.8521 19.046 13.8531 19.0472 13.8538C20.2474 14.5968 21.6142 14.9932 23.0002 14.9998C23.0123 15 23.0245 15 23.0366 15C24.3266 15 25.6087 14.6655 26.7463 14.0321C29.1583 12.6886 30.5984 10.2468 30.5984 7.50003C30.5984 4.75329 29.1583 2.31143 26.7463 0.967942C25.598 0.32853 24.3054 -0.00553341 23.0002 6.93315e-05C21.6142 0.00683929 20.2471 0.403233 19.0472 1.1463C19.0481 1.14583 19.0488 1.14536 19.0498 1.1449C19.0488 1.14536 19.0481 1.14583 19.0472 1.1463C17.6699 1.99955 16.4032 3.04913 15.2992 4.24251C15.9141 4.90713 16.4793 5.61588 16.9833 6.36128C17.2492 6.75464 17.5373 7.13492 17.8443 7.50027C18.7953 6.36828 19.9324 5.3808 21.1879 4.60319Z" fill="#235390"/>
<path d="M12.7537 7.5C13.0607 7.86535 13.3485 8.2454 13.6147 8.63876C14.1187 9.38415 14.6839 10.0929 15.2988 10.7578C14.868 11.2233 14.4121 11.6666 13.935 12.0854C13.2937 11.3645 12.5905 10.4218 12.0846 9.6734C11.8937 9.39116 11.6855 9.11242 11.4648 8.84139C11.9238 8.42258 12.3552 7.97413 12.7537 7.5Z" fill="#1C3F6C"/>
<path d="M15.3008 4.24119V4.24142C15.9157 4.90605 16.4799 5.61573 16.9839 6.36112C17.0701 6.48835 17.1593 6.61371 17.2496 6.73814C17.2295 6.71036 17.2087 6.68305 17.1887 6.65503C17.2526 6.74444 17.318 6.83269 17.3841 6.92046C17.3892 6.92747 17.3941 6.93447 17.3995 6.94124C17.5423 7.13033 17.6903 7.31592 17.8433 7.49778C17.8437 7.49848 17.8444 7.49918 17.8449 7.49988C18.2434 7.02598 18.6746 6.57753 19.1333 6.15896C18.9141 5.88909 18.7058 5.61036 18.514 5.32649C17.9747 4.5288 17.2977 3.66387 16.6342 2.94019C16.168 3.35082 15.7224 3.7855 15.3008 4.24119Z" fill="#1C3F6C"/>
</svg>
