<svg width="26" height="26" viewBox="0 0 26 26" fill="none" xmlns="http://www.w3.org/2000/svg">
<path d="M25.1748 13C25.1748 14.5488 24.8911 16.0323 24.3724 17.4008C23.2705 20.3092 21.1089 22.7017 18.3545 24.1137C16.6266 24.9995 14.6658 25.5 12.5874 25.5H12.5868C10.5081 25.5 8.54706 24.9995 6.8194 24.1134C4.06533 22.7008 1.90378 20.3086 0.802463 17.4008C0.283685 16.0323 0 14.5488 0 13C0 6.09673 5.63587 0.5 12.5874 0.5C19.539 0.5 25.1748 6.09673 25.1748 13Z" fill="#9E69E2"/>
<path d="M25.1748 13C25.1748 14.272 24.9835 15.4996 24.6276 16.6558C23.8163 19.2944 22.1494 21.563 19.9477 23.1412C17.8776 24.6255 15.335 25.5 12.5874 25.5H12.5868C9.83833 25.5 7.29573 24.6249 5.2258 23.1397C3.42362 21.8476 1.97965 20.0932 1.0704 18.0512C0.382025 16.5069 0 14.7979 0 13C0 10.7432 0.602327 8.62645 1.65602 6.79883C2.96688 9.07315 4.97746 10.8994 7.3956 11.9878C8.97844 12.7007 10.7363 13.0977 12.5874 13.0977C14.4382 13.0977 16.196 12.7011 17.7786 11.9883C20.1974 10.8994 22.2079 9.07315 23.5188 6.79883C24.5725 8.62645 25.1748 10.7432 25.1748 13Z" fill="#8E4FD2"/>
<path d="M19.9477 13.2085V23.1412C17.8776 24.6255 15.335 25.5 12.5874 25.5H12.5869C9.83836 25.5 7.29575 24.6249 5.22583 23.1397V13.2085L7.39563 11.9878L12.5869 9.06743L17.7787 11.9883L19.9477 13.2085Z" fill="#FFD112"/>
<path d="M19.9475 13.2085V23.1412C17.8774 24.6255 15.3348 25.5 12.5872 25.5H12.5867V17.3491L19.9475 13.2085Z" fill="#FFE955"/>
<path d="M19.9478 13.2075L12.5873 17.349L5.22534 13.2075L12.5873 9.06763L19.9478 13.2075Z" fill="#984122"/>
<path d="M19.9479 13.2075L12.5874 17.349V9.06763L19.9479 13.2075Z" fill="#CC5A28"/>
<path d="M23.3018 11.3212L19.9494 13.2075L12.5874 9.06609L15.9834 7.15665L23.3018 11.3212Z" fill="#ED771B"/>
<path d="M1.87305 11.3212L5.22541 13.2075L12.5874 9.06609L9.19144 7.15665L1.87305 11.3212Z" fill="#ED771B"/>
<path d="M23.3018 15.0947L19.9494 13.2083L12.5874 17.3495L15.9834 19.259L23.3018 15.0947Z" fill="#ED771B"/>
<path d="M1.87305 15.0947L5.22541 13.2083L12.5874 17.3495L9.19144 19.259L1.87305 15.0947Z" fill="#ED771B"/>
</svg>
