<svg width="15" height="15" viewBox="0 0 15 15" fill="none" xmlns="http://www.w3.org/2000/svg">
<path d="M9.73876 4.66744C9.41638 4.66744 9.15433 4.40624 9.15433 4.08301V2.33057C9.15433 2.00819 8.89227 1.74613 8.5699 1.74613H2.29088C1.9685 1.74613 1.70645 1.48494 1.70645 1.1617C1.70645 0.838467 1.96765 0.578125 2.29088 0.578125H8.57075C9.53725 0.578125 10.3232 1.36407 10.3232 2.33057V4.08301C10.3232 4.40539 10.062 4.66744 9.73876 4.66744Z" fill="#D9A4FC"/>
<path d="M8.57077 12.8449H6.52654C6.20416 12.8449 5.94211 12.5837 5.94211 12.2605C5.94211 11.9381 6.20331 11.6761 6.52654 11.6761H8.57077C8.89315 11.6761 9.1552 11.414 9.1552 11.0916V8.75475C9.1552 8.43237 9.4164 8.17032 9.73964 8.17032C10.062 8.17032 10.3241 8.4313 10.3241 8.75475V11.0925C10.3232 12.059 9.53727 12.8449 8.57077 12.8449Z" fill="#D9A4FC"/>
<path d="M6.02189 1.80304L2.50738 0.632461C2.38994 0.595666 2.27078 0.578125 2.14457 0.578125C1.50046 0.578125 0.976562 1.10202 0.976562 1.74613V12.2608C0.976562 12.7584 1.29381 13.2044 1.77213 13.3719L5.29028 14.5442C5.41029 14.581 5.52773 14.5977 5.64945 14.5977C6.29357 14.5977 6.81746 14.0738 6.81746 13.4296V2.915C6.81832 2.41549 6.50022 1.96947 6.02189 1.80304Z" fill="#BE63F9"/>
<path d="M11.8513 9.29543C11.6333 9.20516 11.4912 8.99231 11.4912 8.75571V7.00327H9.15435C8.83197 7.00327 8.56992 6.74121 8.56992 6.41883C8.56992 6.09646 8.83197 5.83526 9.15435 5.83526H11.4912V4.08281C11.4912 3.84622 11.6333 3.63337 11.8513 3.54309C12.0695 3.45282 12.321 3.50266 12.4883 3.67016L14.8252 6.00704C15.053 6.23486 15.053 6.60452 14.8252 6.8332L12.4883 9.17008C12.321 9.33587 12.0703 9.38571 11.8513 9.29543Z" fill="#BE63F9"/>
</svg>
