<svg width="183" height="35" viewBox="0 0 183 35" fill="none" xmlns="http://www.w3.org/2000/svg">
<path fill-rule="evenodd" clip-rule="evenodd" d="M5.02111 13.179C5.19069 14.048 8.21955 13.7211 8.99014 13.7194C10.2454 13.7166 12.3445 14.2024 11.6839 12.2522C11.2968 11.1095 8.82771 11.4998 7.8092 11.5024C6.54891 11.5057 4.63219 11.1856 5.02111 13.179Z" fill="#FCFCFC"/>
<path fill-rule="evenodd" clip-rule="evenodd" d="M6.41211 11.0612L10.3632 11.0216L9.74246 8.11084C8.20624 8.42541 8.52318 8.39585 7.05169 8.09564L6.41211 11.0612Z" fill="#FCFCFC"/>
<path fill-rule="evenodd" clip-rule="evenodd" d="M7.5469 3.1571C4.45052 4.23944 6.27043 8.94469 9.31759 7.73742C12.1109 6.63073 10.7898 2.02353 7.5469 3.1571Z" fill="#FDFDFD"/>
<path fill-rule="evenodd" clip-rule="evenodd" d="M5.02139 13.179C4.63247 11.1856 6.54918 11.5057 7.80947 11.5024C8.82799 11.4998 11.2971 11.1095 11.6841 12.2522C12.3448 14.2024 10.2457 13.7167 8.99042 13.7194C8.21983 13.7211 5.19096 14.048 5.02139 13.179ZM7.05155 8.09546C8.52304 8.39567 8.2061 8.42523 9.74232 8.11066L10.3631 11.0214L6.41197 11.061L7.05155 8.09546ZM7.54683 3.15722C10.7897 2.02365 12.1108 6.63084 9.31752 7.73753C6.27035 8.9448 4.45045 4.23955 7.54683 3.15722ZM0.709971 0.169416C-0.288843 0.53891 0.0583987 2.68262 0.0584545 3.57102C0.0584545 5.45497 -0.0380789 15.3443 0.155044 15.8189C0.57728 16.8566 2.59176 16.5059 3.52858 16.5059C5.50082 16.5058 15.2136 16.6161 15.7907 16.4329C16.8645 16.0922 16.5052 13.9577 16.5052 13.0311C16.5051 11.1224 16.6114 1.2223 16.3994 0.730669C15.9571 -0.295847 13.8967 0.0594559 12.9761 0.0594559C11.0104 0.0595118 1.29592 -0.047375 0.709971 0.169416Z" fill="#235390"/>
<path fill-rule="evenodd" clip-rule="evenodd" d="M4.38525 31.9157C5.10419 32.3022 11.1055 32.0553 12.4486 32.0592C12.2071 31.5795 12.286 31.7225 11.5309 31.7257C10.1113 31.7317 4.9754 31.5279 4.38525 31.9157Z" fill="#FDFBFB"/>
<path fill-rule="evenodd" clip-rule="evenodd" d="M7.302 23.8433C7.49119 24.1281 8.04655 24.5725 8.40614 25.0411L9.49472 23.8085C8.92191 23.0397 7.80726 23.0087 7.302 23.8433Z" fill="#F27C39"/>
<path fill-rule="evenodd" clip-rule="evenodd" d="M4.37817 31.032C4.77047 31.4962 7.70075 31.2845 8.41835 31.2846L11.5343 31.2943C12.1924 31.3004 12.1519 31.423 12.4456 31.032C11.9238 30.6346 7.32154 30.8221 6.34715 30.8229C5.64398 30.8234 4.86257 30.6753 4.37817 31.032Z" fill="#FEFAF8"/>
<path fill-rule="evenodd" clip-rule="evenodd" d="M8.29654 26.5568C9.07717 26.3221 8.21378 25.3328 9.6176 24.4223C10.3973 23.9165 11.7402 23.9537 12.4889 24.4791C14.2768 25.7335 11.5921 26.4269 11.7997 29.871L5.00109 29.9198C5.20655 26.3271 2.64161 25.9355 4.17836 24.6057C4.86889 24.0082 6.2117 23.8983 7.02252 24.3262C8.30203 25.0015 7.87769 25.7005 8.29654 26.5568ZM7.30258 23.8435C7.80784 23.0089 8.92249 23.0399 9.4953 23.8088L8.40671 25.0413C8.04713 24.5727 7.49176 24.1283 7.30258 23.8435ZM7.52073 22.0527C7.98802 22.7793 7.69728 21.7655 8.20416 22.6543C7.55658 23.1379 7.47241 22.9825 6.79503 23.6995C5.2868 23.5141 2.8762 23.8664 3.32604 25.9383C3.7265 27.7825 5.09196 27.2995 4.34411 30.2166C5.02435 30.5195 11.3872 30.4539 12.4344 30.3224C12.3454 29.2542 11.9256 29.1231 12.4836 27.8577C12.7507 27.2519 13.3471 26.4883 13.4829 25.9147C13.9592 23.902 11.5286 23.479 10.039 23.7065C9.36064 22.9633 9.05765 23.0656 8.61558 22.6269C8.89849 21.8799 8.86701 22.75 9.30656 22.0749C8.57079 21.5159 9.12241 22.1754 8.43814 21.2995C7.86387 21.6896 8.46465 21.3452 8.08969 21.6984C7.92919 21.8497 8.06816 21.7492 7.83591 21.8966C7.73329 21.9617 7.81667 21.8554 7.52073 22.0527Z" fill="#FEFAF8"/>
<path fill-rule="evenodd" clip-rule="evenodd" d="M8.29658 26.5566C7.87772 25.7004 8.30206 25.0014 7.02255 24.3261C6.21173 23.8982 4.86892 24.0081 4.17839 24.6056C2.64164 25.9354 5.20658 26.3269 5.00112 29.9196L11.7997 29.8708C11.5921 26.4268 14.2768 25.7333 12.489 24.479C11.7402 23.9536 10.3974 23.9164 9.61764 24.4221C8.21381 25.3326 9.0772 26.3219 8.29658 26.5566Z" fill="#F27C39"/>
<path fill-rule="evenodd" clip-rule="evenodd" d="M4.38524 31.9159C4.97539 31.5281 10.1113 31.7319 11.5309 31.7259C12.286 31.7227 12.2071 31.5797 12.4485 32.0595C11.1054 32.0555 5.10418 32.3025 4.38524 31.9159ZM4.37836 31.0327C4.86276 30.676 5.64417 30.8241 6.34734 30.8235C7.32173 30.8227 11.924 30.6352 12.4458 31.0327C12.1521 31.4236 12.1926 31.3011 11.5345 31.295L8.41854 31.2853C7.70094 31.2852 4.77066 31.4969 4.37836 31.0327ZM7.52042 22.0529C7.81637 21.8555 7.73299 21.9619 7.8356 21.8967C8.06785 21.7494 7.92888 21.8498 8.08938 21.6986C8.46434 21.3453 7.86356 21.6897 8.43783 21.2996C9.1221 22.1755 8.57048 21.5161 9.30625 22.0751C8.8667 22.7502 8.89819 21.8801 8.61527 22.627C9.05734 23.0657 9.36033 22.9634 10.0387 23.7067C11.5283 23.4792 13.9589 23.9021 13.4825 25.9149C13.3468 26.4884 12.7504 27.2521 12.4833 27.8578C11.9253 29.1233 12.3451 29.2543 12.4341 30.3225C11.3869 30.454 5.02404 30.5196 4.3438 30.2167C5.09165 27.2996 3.72619 27.7827 3.32573 25.9385C2.87589 23.8665 5.28649 23.5143 6.79472 23.6997C7.47211 22.9826 7.55627 23.1381 8.20385 22.6544C7.69697 21.7656 7.98771 22.7794 7.52042 22.0529ZM0.0698692 33.9133C0.285115 35.2186 2.22507 34.8602 3.24056 34.86C4.62135 34.8598 6.00213 34.86 7.38297 34.86C17.2688 34.86 16.5418 35.8119 16.5415 31.6215C16.5413 29.1494 16.713 20.667 16.5193 19.4254C16.3071 18.0649 14.3279 18.4833 13.3007 18.4833C11.9198 18.4835 10.5391 18.4833 9.15828 18.4833C-0.618816 18.4833 0.058461 17.5234 0.0586847 21.7588L0.0698692 33.9133Z" fill="#F27C39"/>
<path fill-rule="evenodd" clip-rule="evenodd" d="M27.3206 22.93C27.6692 22.7567 27.9412 22.4082 28.041 21.9459L26.3119 22.9455C25.856 22.3808 26.2426 22.3533 25.8695 21.7553L25.3513 23.2711C25.8151 22.9408 25.6408 23.0369 25.844 22.5498L26.0799 23.2603L27.4185 22.5171L27.3206 22.93Z" fill="#99AECA"/>
<path fill-rule="evenodd" clip-rule="evenodd" d="M27.3207 22.9301C26.9694 23.1156 27.0583 23.0118 26.8674 23.5163L27.7835 23.9944C27.2718 24.1316 27.2538 24.0261 26.8883 24.2844C27.4604 24.3377 28.3046 24.3353 28.6889 23.9834L27.2082 23.4838L27.3207 22.9301Z" fill="#8FA8C7"/>
<path fill-rule="evenodd" clip-rule="evenodd" d="M23.5212 23.0909L24.3923 23.9205C23.8529 24.2188 22.9144 24.5019 22.6599 24.9605L24.2881 24.9843C24.2128 25.5134 23.8995 26.2388 24.0486 26.641L24.8422 25.7206C24.6898 25.6503 25.0177 25.2003 24.3965 25.8751L24.6516 24.8854L23.4845 24.7222L24.7488 24.01L24.2536 23.4332L25.058 23.5166C24.4918 23.1553 23.9569 22.8329 23.5212 23.0909Z" fill="#90A8C7"/>
<path fill-rule="evenodd" clip-rule="evenodd" d="M26.4401 27.4139L25.1509 27.5345C24.8175 28.723 26.1144 28.983 27.0641 29.5946C27.5247 29.8913 27.8977 30.2338 28.3293 30.5484C28.8968 30.9621 28.9813 31.2059 29.4621 31.6115L32.2986 30.2088C31.9298 29.1345 31.5928 25.9767 30.3668 25.5378C29.0851 25.079 28.4012 25.502 28.2242 25.5285C27.4821 25.6397 27.939 25.4969 27.1944 25.7776C26.8962 25.3701 26.7306 24.8324 26.4819 24.4083C26.0797 23.7222 25.2788 23.7184 25.1828 24.4623C25.0839 25.2291 26.3071 26.5692 26.4401 27.4139Z" fill="#FCFCFC"/>
<path fill-rule="evenodd" clip-rule="evenodd" d="M28.3293 30.5485C27.8977 30.234 27.5248 29.8915 27.0641 29.5948C26.1144 28.9831 24.8175 28.7232 25.1509 27.5347L26.4401 27.414C26.3071 26.5693 25.084 25.2293 25.1828 24.4625C25.2788 23.7186 26.0797 23.7224 26.482 24.4085C26.7306 24.8325 26.8962 25.3702 27.1945 25.7778C27.939 25.4971 27.4821 25.6398 28.2242 25.5287C28.4012 25.5021 29.0851 25.0791 30.3668 25.538C31.5928 25.9768 31.9298 29.1347 32.2986 30.2089L29.4621 31.6116C28.9814 31.206 28.8968 30.9623 28.3293 30.5485ZM27.3207 22.9299L27.2081 23.4836L28.6888 23.9832C28.3045 24.3351 27.4603 24.3375 26.8882 24.2842C27.2537 24.0259 27.2717 24.1314 27.7834 23.9943L26.8673 23.5161C27.0582 23.0116 26.9693 23.1154 27.3207 22.9299ZM23.5212 23.0912C23.9569 22.8332 24.4918 23.1555 25.0579 23.5169L24.2535 23.4335L24.7488 24.0103L23.4845 24.7225L24.6516 24.8856L24.3964 25.8754C25.0177 25.2005 24.6897 25.6506 24.8422 25.7209L24.0486 26.6412C23.8995 26.2391 24.2127 25.5137 24.288 24.9845L22.6599 24.9607C22.9144 24.5021 23.8529 24.2191 24.3923 23.9208L23.5212 23.0912ZM27.3207 22.9299L27.4185 22.5169L26.08 23.2601L25.8441 22.5496C25.6409 23.0367 25.8152 22.9406 25.3514 23.271L25.8696 21.7551C26.2426 22.3532 25.856 22.3806 26.312 22.9453L28.0411 21.9458C27.9413 22.408 27.6692 22.7565 27.3207 22.9299ZM35.6007 34.3894C35.8841 33.8208 35.7427 24.048 35.7428 22.0733C35.7428 21.1915 36.1359 19.0374 35.1995 18.6182C34.5974 18.3485 24.9019 18.4835 22.9095 18.4835C21.9919 18.4835 19.8803 18.1959 19.4573 19.053C19.1739 19.6273 19.3161 29.412 19.3161 31.3987C19.3161 32.2698 18.9939 34.444 19.9183 34.8376C20.4519 35.0648 30.2639 34.9513 32.1991 34.9513C33.0647 34.9513 35.1742 35.2452 35.6007 34.3894Z" fill="#235390"/>
<path fill-rule="evenodd" clip-rule="evenodd" d="M27.1109 14.1593L30.1798 14.0799C30.1784 13.1173 30.0927 13.1267 29.7783 12.3725C29.4738 11.6423 29.6556 11.3192 29.3586 10.5738C28.961 9.57603 28.2523 8.65357 27.4498 8.0306C27.9714 7.84683 27.7997 8.04632 28.2503 7.69426C27.2213 7.8178 27.1939 7.76965 26.3622 7.31854C27.1835 8.71079 28.9614 9.84297 28.1946 11.8666L26.791 12.0143C27.5625 12.4438 27.2783 11.6607 27.7535 12.48C27.0249 12.8594 26.7864 12.4313 26.2397 12.8417L27.1001 13.0376L27.1109 14.1593Z" fill="#F6A779"/>
<path fill-rule="evenodd" clip-rule="evenodd" d="M28.2146 5.50739C28.6125 5.76324 28.3483 5.92423 28.736 5.42785C28.3337 4.9274 28.4404 5.32102 28.2146 5.50739Z" fill="#F28242"/>
<path fill-rule="evenodd" clip-rule="evenodd" d="M28.2142 5.50701C28.4401 5.32066 28.3334 4.92711 28.7357 5.42748C28.348 5.92378 28.6121 5.76282 28.2142 5.50701ZM27.1106 14.1593L27.0998 13.0376L26.2394 12.8417C26.7861 12.4313 27.0246 12.8593 27.7532 12.48C27.278 11.6606 27.5622 12.4438 26.7907 12.0142L28.1943 11.8666C28.9611 9.84291 27.1832 8.71073 26.3619 7.31848C27.1936 7.76959 27.221 7.81774 28.25 7.6942C29.926 7.43353 29.3996 8.7765 30.8955 8.02137C32.3099 6.91492 29.2567 4.99948 28.4078 4.27908C27.687 3.66735 27.8388 3.0379 27.648 2.62219C26.9535 2.76497 27.0551 2.78377 26.6766 3.34963C26.0608 4.27025 24.9022 3.8631 24.1647 6.0146C23.4053 8.22998 24.5787 9.76148 24.8769 11.8618L24.238 12.7641C23.8965 13.4095 23.988 13.0855 23.9904 14.0436L27.1106 14.1593Z" fill="#FCFCFC"/>
<path fill-rule="evenodd" clip-rule="evenodd" d="M28.2505 7.69439C27.7999 8.04645 27.9716 7.84695 27.45 8.03073C28.2525 8.6537 28.9612 9.57616 29.3588 10.5739C29.6558 11.3193 29.474 11.6424 29.7785 12.3727C30.0929 13.1268 30.1786 13.1174 30.18 14.08L27.1111 14.1595L23.9909 14.0438C23.9885 13.0857 23.897 13.4097 24.2385 12.7643L24.8774 11.862C24.5792 9.76167 23.4058 8.23017 24.1652 6.01479C24.9027 3.86328 26.0613 4.27043 26.6771 3.34982C27.0556 2.78395 26.954 2.76516 27.6485 2.62238C27.8393 3.03808 27.6875 3.66754 28.4083 4.27927C29.2572 4.99966 32.3104 6.9151 30.896 8.02156C29.4001 8.77668 29.9265 7.43371 28.2505 7.69439ZM35.573 16.0131C35.9175 15.461 35.7586 5.68409 35.7587 3.7224C35.7587 2.81326 36.1051 0.63731 35.1514 0.183687C34.5928 -0.0819657 24.872 0.0593056 22.9133 0.0593056C22.0738 0.0592497 19.9029 -0.23308 19.4763 0.573441C19.1731 1.14652 19.3161 10.9197 19.3161 12.8956C19.3161 13.8614 18.9611 15.9778 19.9922 16.4158C20.4988 16.6309 30.3071 16.5215 32.2119 16.5215C33.0667 16.5215 35.0794 16.804 35.573 16.0131Z" fill="#F27C39"/>
<path fill-rule="evenodd" clip-rule="evenodd" d="M81.827 26.4296C81.8629 26.3339 81.9142 26.2236 81.9309 26.2713L81.827 26.4296ZM82.9087 25.6027C83.1689 26.0473 83.2765 25.5416 82.933 26.2282C82.6616 25.7172 82.5546 26.0473 82.9087 25.6027ZM86.4733 25.6179C86.2792 26.0873 86.5365 25.8065 86.1167 25.935C86.1631 25.4351 85.8818 25.5959 86.4733 25.6179ZM83.5194 19.2727C83.5594 18.6827 83.3807 18.9471 83.9434 18.7671C84.6002 18.557 84.3703 18.6234 84.7599 18.8248C84.0923 19.2054 83.8768 19.3105 83.5194 19.2727ZM83.254 18.464C83.251 18.3944 83.3978 18.0317 83.5299 18.4961C83.636 18.869 83.2679 18.7889 83.254 18.464ZM83.8087 18.2988C83.8161 18.1074 83.7575 18.1568 84.0962 18.2356C84.4451 18.3168 83.7923 18.726 83.8087 18.2988ZM83.9585 17.887C83.5156 17.7739 83.779 17.9503 83.6154 17.533C84.03 17.7289 83.8345 17.4346 83.9585 17.887ZM90.9517 16.0071C91.2965 15.8801 91.113 15.8556 91.4775 16.0352C90.5879 16.5616 91.1253 16.1499 90.9517 16.0071ZM86.5642 10.7424C86.5656 10.718 86.7473 10.3323 86.8418 10.7724C86.8995 11.0413 86.5409 11.135 86.5642 10.7424ZM86.0335 9.86493C86.461 9.60629 86.0164 9.5568 86.4899 9.84178C86.1075 10.0471 86.4357 10.0825 86.0335 9.86493ZM91.0965 15.1993L90.8601 15.3068C90.9019 16.1015 90.9964 17.2182 90.6597 17.8163L90.616 15.1182L89.2967 15.1692L84.788 15.2876L85.1016 12.9384L93.2862 11.9925C93.6169 11.28 93.6771 8.41343 93.3702 7.66642C92.4101 7.31623 81.2736 7.85355 80.6191 8.29675C80.133 8.89258 79.6768 20.3783 79.6157 22.5037C79.5913 23.3512 79.2794 26.9381 79.8124 27.3957C80.2414 27.764 92.3958 27.0505 92.6503 26.785C92.9538 26.0641 92.9943 23.0036 92.5757 22.3188C91.5544 21.883 86.1698 22.5133 84.5129 22.3448L84.6798 20.0135L91.3786 19.0424C91.5045 18.1337 91.8468 15.756 91.0965 15.1993Z" fill="#235390"/>
<path fill-rule="evenodd" clip-rule="evenodd" d="M91.0964 15.199C90.7472 14.7915 89.7161 14.931 89.2966 15.1689L90.6159 15.1179L90.6596 17.8161C90.9963 17.218 90.9018 16.1012 90.86 15.3066L91.0964 15.199Z" fill="#91A9C7"/>
<path fill-rule="evenodd" clip-rule="evenodd" d="M83.5195 19.2725C83.8769 19.3102 84.0924 19.2052 84.76 18.8246C84.3704 18.6232 84.6003 18.5567 83.9435 18.7668C83.3808 18.9469 83.5595 18.6825 83.5195 19.2725Z" fill="#D7E0EB"/>
<path fill-rule="evenodd" clip-rule="evenodd" d="M82.9331 26.2281C83.2766 25.5415 83.169 26.0472 82.9087 25.6026C82.5547 26.0472 82.6617 25.7171 82.9331 26.2281Z" fill="#B6C6DA"/>
<path fill-rule="evenodd" clip-rule="evenodd" d="M90.9514 16.0071C91.125 16.1498 90.5876 16.5616 91.4773 16.0351C91.1127 15.8555 91.2962 15.88 90.9514 16.0071Z" fill="#F2F5F8"/>
<path fill-rule="evenodd" clip-rule="evenodd" d="M83.254 18.4641C83.2679 18.7889 83.636 18.8691 83.5299 18.4961C83.3978 18.0317 83.251 18.3944 83.254 18.4641Z" fill="#6E8EB6"/>
<path fill-rule="evenodd" clip-rule="evenodd" d="M86.5638 10.7425C86.5405 11.1351 86.8992 11.0415 86.8415 10.7725C86.7469 10.3325 86.5652 10.7181 86.5638 10.7425Z" fill="#89A3C4"/>
<path fill-rule="evenodd" clip-rule="evenodd" d="M83.8087 18.2987C83.7922 18.7259 84.445 18.3167 84.0962 18.2355C83.7574 18.1567 83.816 18.1073 83.8087 18.2987Z" fill="#F4F6FA"/>
<path fill-rule="evenodd" clip-rule="evenodd" d="M86.033 9.86459C86.4352 10.0821 86.107 10.0468 86.4894 9.84144C86.0158 9.55646 86.4605 9.60595 86.033 9.86459Z" fill="#C3D0E1"/>
<path fill-rule="evenodd" clip-rule="evenodd" d="M83.9583 17.8868C83.8343 17.4343 84.0298 17.7287 83.6152 17.5328C83.7788 17.9501 83.5154 17.7736 83.9583 17.8868Z" fill="#8AA4C4"/>
<path fill-rule="evenodd" clip-rule="evenodd" d="M81.8267 26.4292L81.9306 26.2709C81.9139 26.2232 81.8625 26.3335 81.8267 26.4292Z" fill="#D9E1EC"/>
<path fill-rule="evenodd" clip-rule="evenodd" d="M141.138 18.9728C141.23 19.7726 141.114 19.4013 141.484 19.5627C141.688 19.6516 141.822 19.6841 142.187 19.6173C141.501 19.2962 141.933 19.7607 141.632 19.1536C142.589 18.9343 142.146 19.4176 142.447 18.617C141.946 18.6412 141.514 18.7349 141.138 18.9728Z" fill="#B1C2D8"/>
<path fill-rule="evenodd" clip-rule="evenodd" d="M139.499 26.4229C139.943 25.9385 139.603 26.0938 139.977 26.3326L139.499 26.4229ZM140.615 25.6339C140.85 26.0825 140.861 25.6556 140.637 26.2136C140.403 25.8233 140.232 26.0016 140.615 25.6339ZM143.71 25.6735C144.162 25.4551 143.96 25.5133 144.199 25.8316C143.522 26.124 143.884 25.8096 143.71 25.6735ZM140.661 20.044C141.27 20.0209 140.634 20.4212 141.359 19.7407C141.391 19.7899 141.435 19.8042 141.445 19.8938L141.594 20.3517C141.607 20.4212 141.623 20.7904 141.628 20.836C141.104 20.8042 141.035 20.5942 140.661 20.044ZM141.138 18.9728C141.514 18.735 141.946 18.6412 142.447 18.617C142.146 19.4176 142.589 18.9344 141.632 19.1537C141.933 19.7608 141.501 19.2962 142.187 19.6174C141.822 19.6842 141.688 19.6516 141.484 19.5628C141.114 19.4014 141.23 19.7726 141.138 18.9728ZM141.647 18.2018C142.044 17.6242 141.397 18.2909 141.91 18.0916C141.768 18.4229 141.973 18.3478 141.591 18.3935L141.647 18.2018ZM141.663 17.8812C141.177 17.844 141.469 17.9612 141.358 17.4689L141.663 17.8812ZM144.187 9.85267C144.003 9.95476 144.248 10.1855 143.678 9.88411C144.137 9.505 143.716 9.5988 144.187 9.85267ZM149.057 18.7675C149.075 18.2648 149.091 17.7272 149.086 17.2257C149.079 16.3987 149.241 16.5133 148.692 16.1896C148.26 17.2594 148.864 18.1276 148.442 18.5391L148.339 15.0853L146.734 15.1667L142.416 15.2537C142.415 15.0714 142.563 13.5772 142.763 13.0236C144.403 12.3632 149.463 12.6507 150.981 11.9518C151.313 11.2236 151.416 8.38776 151.061 7.71418C150.236 7.23252 145.809 7.71797 144.521 7.77694C143.361 7.83007 139.028 7.77123 138.374 8.30842C137.798 9.19255 137.563 16.2032 137.488 17.7574C137.409 19.3988 136.841 26.5731 137.464 27.4645C138.405 27.7665 149.743 27.1319 150.341 26.7226C150.658 26.0878 150.582 23.0779 150.375 22.2743C148.243 21.8721 144.576 22.5685 142.249 22.3479C142.222 21.6782 142.144 20.6394 142.466 20.0812C143.764 19.4544 148.441 19.8085 149.057 18.7675Z" fill="#235390"/>
<path fill-rule="evenodd" clip-rule="evenodd" d="M141.445 19.8941C141.435 19.8045 141.391 19.7901 141.36 19.7409C140.634 20.4214 141.271 20.0212 140.661 20.0443C141.035 20.5944 141.104 20.8044 141.628 20.8362C141.623 20.7907 141.607 20.4214 141.594 20.3519L141.445 19.8941Z" fill="#5A7EAB"/>
<path fill-rule="evenodd" clip-rule="evenodd" d="M149.087 15.4547L148.866 15.0948C148.5 15.4701 148.515 14.9233 148.614 15.9979C149.21 15.3843 148.763 16.1136 149.087 15.4547Z" fill="#265591"/>
<path fill-rule="evenodd" clip-rule="evenodd" d="M149.058 18.7677C149.485 18.284 149.372 16.0008 149.087 15.4548C148.763 16.1136 149.21 15.3844 148.615 15.9979C148.516 14.9233 148.501 15.4701 148.866 15.0948C148.515 14.9467 147.045 14.7172 146.735 15.1669L148.34 15.0855L148.443 18.5393C148.864 18.1278 148.261 17.2596 148.692 16.1898C149.242 16.5135 149.079 16.3988 149.087 17.2259C149.092 17.7274 149.075 18.265 149.058 18.7677Z" fill="#A9BBD3"/>
<path fill-rule="evenodd" clip-rule="evenodd" d="M144.199 25.8318C143.96 25.5136 144.162 25.4554 143.71 25.6738C143.885 25.8098 143.522 26.1242 144.199 25.8318Z" fill="#C7D4E3"/>
<path fill-rule="evenodd" clip-rule="evenodd" d="M140.638 26.2138C140.862 25.6558 140.851 26.0827 140.616 25.6341C140.233 26.0018 140.404 25.8235 140.638 26.2138Z" fill="#C1CEE0"/>
<path fill-rule="evenodd" clip-rule="evenodd" d="M143.678 9.88415C144.249 10.1855 144.003 9.9548 144.188 9.85271C143.716 9.59884 144.138 9.50504 143.678 9.88415Z" fill="#B4C5D9"/>
<path fill-rule="evenodd" clip-rule="evenodd" d="M139.499 26.4225L139.978 26.3323C139.603 26.0934 139.944 25.9382 139.499 26.4225Z" fill="#CED9E6"/>
<path fill-rule="evenodd" clip-rule="evenodd" d="M141.591 18.3932C141.973 18.3475 141.768 18.4226 141.91 18.0913C141.397 18.2905 142.044 17.6239 141.647 18.2015L141.591 18.3932Z" fill="#F2F5F8"/>
<path fill-rule="evenodd" clip-rule="evenodd" d="M141.664 17.8813L141.358 17.469C141.469 17.9613 141.178 17.8441 141.664 17.8813Z" fill="#89A3C4"/>
<path fill-rule="evenodd" clip-rule="evenodd" d="M118.058 22.973C118.785 23.1405 118.502 23.1742 118.849 22.9003C118.639 22.7783 118.852 22.7519 118.478 22.7757C117.649 22.8286 118.32 22.7871 118.058 22.973Z" fill="#FBFCFD"/>
<path fill-rule="evenodd" clip-rule="evenodd" d="M117.125 24.9568C117.125 24.7103 117.508 24.5894 117.407 24.9539C117.3 25.3398 117.125 25.2453 117.125 24.9568ZM117.918 23.4277C118.566 22.9401 118.167 23.143 118.579 23.3738C118.338 23.5506 118.535 23.8924 117.918 23.4277ZM118.849 22.8999C118.502 23.1738 118.785 23.1402 118.058 22.9727C118.32 22.7867 117.648 22.8283 118.478 22.7754C118.852 22.7516 118.639 22.7779 118.849 22.8999ZM119.047 20.9204C119.041 20.5805 119.417 20.5534 119.332 20.8849C119.215 21.3427 119.047 20.9227 119.047 20.9204ZM117.014 17.9914C117.319 18.2604 117.388 18.2298 117.297 18.4442C116.87 18.5605 117.044 18.2459 117.014 17.9914ZM108.211 25.5214C110.594 27.11 113.704 27.9712 116.554 27.3446C119.474 26.7023 121.309 24.1118 120.934 21.1348C120.525 17.8986 118.014 17.1286 115.909 15.487C114.77 14.5991 114.015 13.3026 114.997 11.927C115.469 11.2661 116.263 11.2235 116.459 12.1407C116.627 12.9233 116.411 13.6664 116.676 14.5238C117.512 14.758 120.164 14.8318 120.866 14.4637C120.968 14.3618 122.444 8.6739 117.635 7.81458C109.558 6.37137 107.3 15.3941 110.86 18.0793C114.24 20.6292 116.095 20.6126 115.425 23.2737C113.072 24.6428 111.425 22.0557 109.782 22.1358C109.176 22.7773 108.256 24.6244 108.211 25.5214Z" fill="#235390"/>
<path fill-rule="evenodd" clip-rule="evenodd" d="M117.918 23.4279C118.535 23.8926 118.339 23.5507 118.579 23.3739C118.167 23.1431 118.566 22.9402 117.918 23.4279Z" fill="#F2F5F8"/>
<path fill-rule="evenodd" clip-rule="evenodd" d="M117.125 24.9571C117.124 25.2456 117.3 25.3401 117.407 24.9542C117.508 24.5896 117.125 24.7106 117.125 24.9571Z" fill="#7795BB"/>
<path fill-rule="evenodd" clip-rule="evenodd" d="M117.297 18.4443C117.389 18.2299 117.319 18.2604 117.014 17.9915C117.044 18.246 116.87 18.5606 117.297 18.4443Z" fill="#C1CEE0"/>
<path fill-rule="evenodd" clip-rule="evenodd" d="M119.047 20.9209C119.047 20.9231 119.215 21.3431 119.332 20.8853C119.417 20.5538 119.041 20.5809 119.047 20.9209Z" fill="#C1CEE0"/>
<path fill-rule="evenodd" clip-rule="evenodd" d="M105.556 23.6416C105.56 23.64 105.595 23.6284 105.597 23.6282L105.411 23.7823C105.418 23.7442 105.482 23.7056 105.492 23.6988C105.499 23.6938 105.55 23.6451 105.556 23.6416ZM104.761 23.23L104.807 23.7775L104.125 23.3436L104.761 23.23ZM105.255 20.9345C105.279 20.4295 105.447 20.6742 105.521 20.8931C105.649 21.2709 105.252 20.9929 105.255 20.9345ZM96.0602 22.0835C95.5696 22.5806 95.3553 23.2049 95.0101 23.8757C94.6199 24.6342 94.0458 25.2439 94.8728 25.8114C97.7295 27.7717 104.266 28.9213 106.461 24.6314C109.552 18.591 102.687 16.3726 101.271 14.6865C100.382 13.6275 100.758 11.1777 102.458 11.55C102.983 12.588 102.533 13.4673 102.904 14.4374C103.566 14.8084 106.509 14.8096 107.154 14.4276C107.565 13.2088 107.33 10.3364 106.524 9.25053C104.618 6.68464 96.2788 6.76484 95.4995 13.4651C95.0119 17.657 97.6802 18.4729 100.492 20.3733C102.024 21.4083 102.571 23.6099 100.465 23.685C98.8062 23.7441 97.5519 22.2691 96.0602 22.0835Z" fill="#235390"/>
<path fill-rule="evenodd" clip-rule="evenodd" d="M104.125 23.3436L104.806 23.7775L104.761 23.23L104.125 23.3436Z" fill="#E9EEF4"/>
<path fill-rule="evenodd" clip-rule="evenodd" d="M105.255 20.9342C105.252 20.9926 105.649 21.2706 105.521 20.8927C105.447 20.6738 105.279 20.4292 105.255 20.9342Z" fill="#D5DEEA"/>
<path fill-rule="evenodd" clip-rule="evenodd" d="M105.411 23.7819L105.597 23.6278C105.595 23.628 105.56 23.6395 105.556 23.6412C105.55 23.6447 105.499 23.6933 105.492 23.6984C105.482 23.7052 105.418 23.7438 105.411 23.7819Z" fill="#DEE5EE"/>
<path fill-rule="evenodd" clip-rule="evenodd" d="M126.972 25.7155C126.62 25.1304 126.913 21.5238 127.148 21.0649C127.495 21.5361 127.323 21.0845 127.251 22.0249C127.21 22.5527 127.528 24.9521 126.972 25.7155ZM125.063 11.9705L125.61 11.9254C125.135 12.2732 125.486 12.2894 125.063 11.9705ZM124.363 11.795C124.369 11.521 124.734 11.3269 124.621 11.7546C124.506 12.1868 124.362 11.8051 124.363 11.795ZM123.939 11.2147C123.954 11.1582 124.655 10.8432 124.288 11.3093C123.932 11.7601 123.921 11.2836 123.939 11.2147ZM123.614 10.9962C123.867 11.4362 123.844 11.0214 123.635 11.461C123.37 11.098 123.235 11.4276 123.614 10.9962ZM136.106 11.8334C136.392 11.0747 136.71 7.95693 135.871 7.64203C135.78 7.60787 122.788 7.57463 122.362 8.07726C122.035 8.78819 121.865 12.6334 122.275 13.1674C123.024 13.6356 125.615 12.7074 126.647 12.6704C126.946 16.0594 125.957 25.1186 126.393 27.4685C127.379 27.7007 130.619 27.7505 131.275 27.1729C131.325 26.6998 131.115 26.0447 131.154 25.3L131.223 23.1922C131.171 21.0683 131.464 21.9843 131.539 20.4039C131.667 17.7078 131.596 14.8935 131.792 12.2253C133.023 12.0026 135.099 12.3067 136.106 11.8334Z" fill="#235390"/>
<path fill-rule="evenodd" clip-rule="evenodd" d="M126.972 25.7155C127.528 24.9522 127.21 22.5527 127.25 22.0249C127.322 21.0846 127.495 21.5361 127.147 21.0649C126.913 21.5239 126.62 25.1304 126.972 25.7155Z" fill="#F4F6FA"/>
<path fill-rule="evenodd" clip-rule="evenodd" d="M124.288 11.3092C124.655 10.8431 123.954 11.1581 123.939 11.2146C123.921 11.2835 123.932 11.76 124.288 11.3092Z" fill="#C1CEE0"/>
<path fill-rule="evenodd" clip-rule="evenodd" d="M124.362 11.7949C124.362 11.805 124.505 12.1867 124.62 11.7545C124.734 11.3268 124.368 11.5209 124.362 11.7949Z" fill="#ACBED5"/>
<path fill-rule="evenodd" clip-rule="evenodd" d="M123.613 10.996C123.234 11.4274 123.37 11.0978 123.635 11.4608C123.844 11.0212 123.867 11.436 123.613 10.996Z" fill="#DEE5EE"/>
<path fill-rule="evenodd" clip-rule="evenodd" d="M125.063 11.9701C125.485 12.2889 125.135 12.2728 125.61 11.925L125.063 11.9701Z" fill="#A6B9D2"/>
<path fill-rule="evenodd" clip-rule="evenodd" d="M176.461 25.815C176.094 25.2947 176.1 21.0789 176.461 20.6133C176.911 21.0927 176.697 23.4134 176.733 24.6092C176.781 26.2246 176.653 25.6238 176.461 25.815ZM177.068 18.6461C177.416 17.9433 176.96 18.3884 177.514 18.1121C177.517 19.0031 177.282 18.4153 177.485 18.9355C177.286 18.8798 177.404 19.2213 177.068 18.6461ZM177.331 17.411C177.329 17.3684 177.476 16.9964 177.599 17.4607C177.7 17.8446 177.343 17.7703 177.331 17.411ZM175.089 17.7167C174.502 17.9962 175.029 17.8839 174.343 17.5865C174.641 17.3842 173.914 17.2862 174.776 17.4701C175.258 17.5727 174.891 17.5315 175.089 17.7167ZM175.23 16.8846C175.25 16.637 175.417 16.4998 175.491 16.8805C175.55 17.18 175.207 17.1605 175.23 16.8846ZM182.091 9.47872C181.969 9.47401 179.092 8.89901 178.775 8.46092C179.191 8.28228 181.436 8.83778 181.993 9.04083L182.091 9.47872ZM182.091 9.47872C182.452 9.01808 182.519 8.84846 182.338 8.20049C181.495 7.86854 179.093 7.60744 178.216 7.77573C177.102 9.31633 175.81 14.2222 174.898 15.1737L171.912 7.60034C171.017 7.60585 168.502 8.47897 167.951 9.05735C167.935 9.85591 170.427 16.429 170.894 17.7134C171.233 18.6488 172.355 21.3723 172.455 22.1579C172.562 23.0078 172.204 25.1477 172.112 26.2402C172.051 26.9654 171.921 26.9658 172.333 27.3391C172.864 27.8525 176.676 27.4662 176.77 27.3997C177.395 26.5688 177.09 23.2339 177.209 21.9831C177.361 20.3742 181.752 11.6171 182.091 9.47872Z" fill="#235390"/>
<path fill-rule="evenodd" clip-rule="evenodd" d="M176.461 25.8145C176.652 25.6233 176.781 26.2241 176.733 24.6087C176.697 23.4129 176.91 21.0922 176.461 20.6128C176.099 21.0784 176.093 25.2942 176.461 25.8145Z" fill="#FEFEFE"/>
<path fill-rule="evenodd" clip-rule="evenodd" d="M182.09 9.47816L181.992 9.04027C181.435 8.83722 179.19 8.28172 178.774 8.46036C179.091 8.89845 181.968 9.47345 182.09 9.47816Z" fill="#F4F6FA"/>
<path fill-rule="evenodd" clip-rule="evenodd" d="M177.068 18.6456C177.404 19.2208 177.286 18.8792 177.484 18.935C177.281 18.4148 177.516 19.0026 177.514 18.1116C176.96 18.3879 177.416 17.9428 177.068 18.6456Z" fill="#C6D2E2"/>
<path fill-rule="evenodd" clip-rule="evenodd" d="M174.343 17.5862C175.029 17.8836 174.502 17.9959 175.089 17.7164C174.891 17.5312 175.258 17.5724 174.776 17.4698C173.914 17.2859 174.641 17.3839 174.343 17.5862Z" fill="#96ADCA"/>
<path fill-rule="evenodd" clip-rule="evenodd" d="M177.331 17.4106C177.343 17.7698 177.7 17.8442 177.598 17.4602C177.476 16.996 177.329 17.3679 177.331 17.4106Z" fill="#9DB2CE"/>
<path fill-rule="evenodd" clip-rule="evenodd" d="M175.229 16.8842C175.206 17.1601 175.549 17.1796 175.491 16.8801C175.416 16.4994 175.25 16.6366 175.229 16.8842Z" fill="#89A3C4"/>
<path fill-rule="evenodd" clip-rule="evenodd" d="M73.1664 26.4512C73.4147 26.1105 72.7085 26.17 73.5701 26.2613L73.1664 26.4512ZM66.3653 24.0793C66.34 23.4987 66.5771 23.8404 66.6615 24.0487C66.7851 24.3538 66.3708 24.2075 66.3653 24.0793ZM75.2415 23.758C75.037 24.0357 74.9194 23.771 75.0812 23.6341C75.5603 23.2288 75.4211 23.5141 75.2415 23.758ZM76.6419 23.4963C75.9664 23.5035 76.2868 23.6512 76.1609 23.1842L76.6419 23.4963ZM66.2252 19.8675C66.6703 19.6853 66.2762 19.6731 66.7243 19.8807C65.9623 20.3636 67.4187 19.8183 66.4532 20.0142C65.831 20.1405 66.543 20.135 66.2252 19.8675ZM73.0338 17.7616C73.0344 17.7222 73.2096 17.348 73.3306 17.7918C73.4102 18.0834 73.0283 18.127 73.0338 17.7616ZM72.3301 17.7616C72.3342 17.4363 72.5309 17.4021 72.6416 17.7604C72.7413 18.0834 72.327 18.0215 72.3301 17.7616ZM74.0877 16.8841C74.1281 16.8611 74.1771 16.8044 74.197 16.7978L74.4211 16.7852C74.437 16.7371 74.4955 16.836 74.5389 16.9267L74.0877 16.8841ZM72.5512 17.0205C71.8464 17.1342 71.9619 17.1423 71.4032 16.7273C71.5417 16.412 71.9273 16.4593 72.2803 16.4392L72.5512 17.0205ZM72.917 16.1379C72.099 16.7419 72.5139 16.275 72.3747 16.1822C72.7452 15.995 72.3332 15.8794 72.917 16.1379ZM67.9797 11.6194C67.9303 11.2932 68.1102 11.3211 68.2438 11.6198C68.4099 11.991 67.9981 11.7396 67.9797 11.6194ZM65.7004 8.81149C65.6972 8.68048 65.8549 8.52957 65.9439 8.86622C66.009 9.11259 65.71 9.20208 65.7004 8.81149ZM77.7759 27.1801C77.7961 27.097 78.4513 7.61645 78.4327 7.51708C77.4689 7.32258 74.5281 7.31979 73.5218 7.50361L72.9853 14.8433C71.6666 14.9272 70.3862 15.1132 69.128 14.9143C69.129 13.6128 69.8335 8.50038 69.392 7.8126C68.9597 7.26931 65.5605 7.52842 64.7764 7.67615C64.3311 10.215 63.9699 18.8837 63.7157 22.5401C63.3249 28.1655 62.8591 27.6142 66.2518 27.5443C70.0351 27.4664 68.5335 28.2197 68.964 20.1153C70.0727 19.554 71.5358 19.1965 72.7859 19.2618C72.8856 21.0018 72.1468 26.023 72.6325 27.1608C73.4657 27.4289 76.8979 27.4102 77.7759 27.1801Z" fill="#235390"/>
<path fill-rule="evenodd" clip-rule="evenodd" d="M71.4031 16.7272C71.9618 17.1422 71.8463 17.1342 72.551 17.0205L72.2801 16.4391C71.9271 16.4592 71.5416 16.412 71.4031 16.7272Z" fill="#C1CEE0"/>
<path fill-rule="evenodd" clip-rule="evenodd" d="M72.3743 16.1827C72.5135 16.2755 72.0986 16.7423 72.9166 16.1383C72.3328 15.8799 72.7448 15.9955 72.3743 16.1827Z" fill="#C0CDDF"/>
<path fill-rule="evenodd" clip-rule="evenodd" d="M72.3303 17.7619C72.3272 18.0219 72.7415 18.0837 72.6418 17.7608C72.5311 17.4024 72.3344 17.4366 72.3303 17.7619Z" fill="#839EC1"/>
<path fill-rule="evenodd" clip-rule="evenodd" d="M66.3651 24.0793C66.3707 24.2075 66.785 24.3538 66.6614 24.0487C66.577 23.8404 66.3399 23.4987 66.3651 24.0793Z" fill="#9DB2CE"/>
<path fill-rule="evenodd" clip-rule="evenodd" d="M73.034 17.7615C73.0286 18.127 73.4104 18.0834 73.3308 17.7918C73.2098 17.3479 73.0346 17.7222 73.034 17.7615Z" fill="#6D8DB5"/>
<path fill-rule="evenodd" clip-rule="evenodd" d="M67.9793 11.6197C67.9976 11.74 68.4095 11.9913 68.2434 11.6201C68.1098 11.3215 67.9299 11.2936 67.9793 11.6197Z" fill="#CBD5E5"/>
<path fill-rule="evenodd" clip-rule="evenodd" d="M75.0809 23.6344C74.9192 23.7712 75.0368 24.0359 75.2413 23.7583C75.4209 23.5144 75.5601 23.2291 75.0809 23.6344Z" fill="#A2B7D0"/>
<path fill-rule="evenodd" clip-rule="evenodd" d="M65.7005 8.81185C65.71 9.20244 66.0091 9.11295 65.9439 8.86658C65.855 8.52992 65.6973 8.68084 65.7005 8.81185Z" fill="#E9EEF4"/>
<path fill-rule="evenodd" clip-rule="evenodd" d="M76.6416 23.4962L76.1606 23.1842C76.2866 23.6512 75.9661 23.5035 76.6416 23.4962Z" fill="#DEE5EE"/>
<path fill-rule="evenodd" clip-rule="evenodd" d="M66.2253 19.8677C66.5431 20.1352 65.8311 20.1407 66.4533 20.0144C67.4188 19.8185 65.9624 20.3637 66.7244 19.8809C66.2763 19.6732 66.6704 19.6855 66.2253 19.8677Z" fill="#E5EBF2"/>
<path fill-rule="evenodd" clip-rule="evenodd" d="M74.0879 16.8843L74.539 16.9269C74.4957 16.8361 74.4372 16.7373 74.4212 16.7853L74.1972 16.798C74.1772 16.8045 74.1282 16.8613 74.0879 16.8843Z" fill="#9AB0CC"/>
<path fill-rule="evenodd" clip-rule="evenodd" d="M73.1663 26.4515L73.5699 26.2616C72.7083 26.1703 73.4145 26.1107 73.1663 26.4515Z" fill="#DEE5EE"/>
<path fill-rule="evenodd" clip-rule="evenodd" d="M161.445 17.8978C161.447 17.4014 161.666 17.8547 161.686 17.9136C161.821 18.3062 161.445 17.9359 161.445 17.8978ZM160.572 17.4464L160.555 16.525L161.345 16.9085L160.572 17.4464ZM160.32 16.1823C160.24 15.9527 160.436 15.9917 160.572 16.2114C160.841 16.6453 160.373 16.335 160.32 16.1823ZM154.876 16.0305C154.611 15.6225 154.706 16.2442 154.557 15.4284C154.638 15.3158 154.928 15.2747 155.062 15.2583C155.255 15.9287 155.032 15.7585 154.876 16.0305ZM157.617 12.6008C164.215 10.1648 161.834 16.4 157.188 16.6369L157.617 12.6008ZM162.039 10.8807C162.15 11.1574 162.546 10.7608 162.059 11.5913C161.44 10.7984 161.982 11.036 162.039 10.8807ZM163.245 19.142C166.008 17.5147 167.029 13.4351 165.885 10.4359C164.507 6.82182 160.141 7.59271 157.041 7.98018C156.137 8.09315 155.096 8.1772 154.214 8.31936C153.009 8.51372 153.285 9.18817 153.216 10.3571C153.042 13.3 151.962 26.153 152.283 27.2076C152.917 27.4855 155.918 27.5309 156.633 27.2546C157.254 26.0589 156.559 23.0582 156.971 21.5773L158.48 21.2002C159.776 22.5907 161.696 27.3439 161.992 27.5051C162.766 27.6056 165.487 25.754 166.063 25.1351C165.861 23.4146 163.433 20.8096 163.245 19.142Z" fill="#235390"/>
<path fill-rule="evenodd" clip-rule="evenodd" d="M160.572 17.4467L161.345 16.9088L160.555 16.5253L160.572 17.4467Z" fill="#819CBF"/>
<path fill-rule="evenodd" clip-rule="evenodd" d="M154.557 15.4283C154.706 16.2441 154.611 15.6224 154.877 16.0304C155.033 15.7584 155.255 15.9286 155.063 15.2582C154.928 15.2746 154.639 15.3158 154.557 15.4283Z" fill="#88A2C3"/>
<path fill-rule="evenodd" clip-rule="evenodd" d="M162.059 11.5915C162.547 10.761 162.15 11.1576 162.039 10.8809C161.982 11.0362 161.44 10.7986 162.059 11.5915Z" fill="#6E8EB6"/>
<path fill-rule="evenodd" clip-rule="evenodd" d="M160.32 16.1826C160.373 16.3353 160.841 16.6456 160.572 16.2118C160.436 15.9921 160.24 15.953 160.32 16.1826Z" fill="#A2B7D0"/>
<path fill-rule="evenodd" clip-rule="evenodd" d="M161.445 17.8979C161.445 17.9359 161.821 18.3063 161.686 17.9136C161.666 17.8548 161.447 17.4015 161.445 17.8979Z" fill="#AFBFD5"/>
<path fill-rule="evenodd" clip-rule="evenodd" d="M50.6381 14.6172C51.0521 14.4824 50.8797 14.4482 51.3071 14.7146L50.7445 14.9282L50.6381 14.6172ZM50.6381 14.6172C50.12 14.433 50.3471 14.8027 50.3659 14.2348L50.6381 14.6172ZM50.6895 13.3937L51.1501 13.9026C50.4759 13.9086 50.6878 14.1789 50.6895 13.3937ZM51.7489 13.6178C51.2496 13.6543 51.3827 13.5821 51.3817 12.9214C51.7542 13.2803 51.7532 13.1192 51.7489 13.6178ZM59.4508 12.8487C59.8287 12.5742 59.3804 12.4648 59.9941 12.8739C59.6986 13.0284 59.9929 13.2853 59.4508 12.8487ZM59.9331 12.1436C59.7237 12.5827 60.1702 12.3851 59.4312 12.4872C59.4287 11.9416 59.5186 11.9617 59.9331 12.1436ZM58.4241 12.4977C59.13 12.0419 58.8609 12.3677 59.0478 12.4925C58.5838 12.7689 58.8027 12.7798 58.4241 12.4977ZM57.3439 10.5674C57.3413 10.271 57.5002 10.205 57.5939 10.5859C57.7035 11.032 57.3459 10.7934 57.3439 10.5674ZM57.7732 8.17633C58.141 8.44406 58.0099 8.05878 57.9533 8.56858C57.2305 8.20034 57.7421 8.23736 57.7732 8.17633ZM57.7732 8.17633C57.7873 8.13553 57.51 7.20656 58.3327 8.06833L57.7732 8.17633ZM59.221 19.3897C57.9579 20.3432 57.4564 23.1388 55.3657 23.2578C52.9201 23.397 53.2653 19.0611 53.4875 17.4735C54.3593 11.2456 57.7738 10.0639 57.3832 12.9448C57.255 13.8901 56.6666 14.9105 56.9352 15.8377C57.7348 16.1493 60.6799 16.0769 61.6444 15.9438C63.1946 15.0782 62.9569 5.62842 54.7504 7.65552C46.2574 9.75341 44.7911 29.0256 55.2957 27.5198C58.9348 26.9982 62.1201 22.4275 61.4922 21.3066C61.1578 20.7096 59.905 19.5265 59.221 19.3897Z" fill="#235390"/>
<path fill-rule="evenodd" clip-rule="evenodd" d="M59.4314 12.4863C60.1704 12.3842 59.724 12.5818 59.9333 12.1427C59.5189 11.9608 59.429 11.9407 59.4314 12.4863Z" fill="#EDF1F6"/>
<path fill-rule="evenodd" clip-rule="evenodd" d="M57.7732 8.17586L58.3327 8.06787C57.51 7.20609 57.7873 8.13507 57.7732 8.17586Z" fill="#96ADCA"/>
<path fill-rule="evenodd" clip-rule="evenodd" d="M51.7491 13.6173C51.7533 13.1187 51.7543 13.2798 51.3818 12.9209C51.3828 13.5816 51.2497 13.6538 51.7491 13.6173Z" fill="#C6D2E2"/>
<path fill-rule="evenodd" clip-rule="evenodd" d="M50.6384 14.6166L50.7448 14.9276L51.3074 14.714C50.88 14.4475 51.0524 14.4818 50.6384 14.6166Z" fill="#AFBFD5"/>
<path fill-rule="evenodd" clip-rule="evenodd" d="M58.4246 12.4971C58.8032 12.7791 58.5843 12.7683 59.0483 12.4918C58.8614 12.3671 59.1304 12.0412 58.4246 12.4971Z" fill="#C8D4E4"/>
<path fill-rule="evenodd" clip-rule="evenodd" d="M51.15 13.902L50.6894 13.3932C50.6877 14.1783 50.4758 13.908 51.15 13.902Z" fill="#8FA8C7"/>
<path fill-rule="evenodd" clip-rule="evenodd" d="M59.4507 12.8482C59.9928 13.2848 59.6985 13.0279 59.994 12.8734C59.3804 12.4643 59.8287 12.5737 59.4507 12.8482Z" fill="#C7D4E3"/>
<path fill-rule="evenodd" clip-rule="evenodd" d="M57.3438 10.5669C57.3458 10.7929 57.7034 11.0316 57.5938 10.5854C57.5001 10.2045 57.3412 10.2706 57.3438 10.5669Z" fill="#B1C2D8"/>
<path fill-rule="evenodd" clip-rule="evenodd" d="M57.7732 8.17572C57.7422 8.23675 57.2305 8.19973 57.9533 8.56797C58.0099 8.05817 58.141 8.44345 57.7732 8.17572Z" fill="#D0DAE7"/>
<path fill-rule="evenodd" clip-rule="evenodd" d="M86.473 25.6179C85.8816 25.5959 86.1629 25.4351 86.1165 25.935C86.5363 25.8065 86.279 26.0873 86.473 25.6179Z" fill="#EDF1F6"/>
<path fill-rule="evenodd" clip-rule="evenodd" d="M50.6379 14.6165L50.3656 14.234C50.3469 14.8019 50.1197 14.4323 50.6379 14.6165Z" fill="#A0B4CF"/>
</svg>
