<svg width="29" height="28" viewBox="0 0 29 28" fill="none" xmlns="http://www.w3.org/2000/svg">
<path fill-rule="evenodd" clip-rule="evenodd" d="M4.01729 10.5432C4.15295 11.2384 6.57604 10.9769 7.19252 10.9755C8.19673 10.9733 9.87599 11.3619 9.3475 9.80176C9.03783 8.88757 7.06257 9.19984 6.24776 9.20194C5.23953 9.20458 3.70616 8.94849 4.01729 10.5432Z" fill="#FCFCFC"/>
<path fill-rule="evenodd" clip-rule="evenodd" d="M5.12994 8.84895L8.29084 8.81726L7.79422 6.48866C6.56524 6.74032 6.8188 6.71667 5.6416 6.4765L5.12994 8.84895Z" fill="#FCFCFC"/>
<path fill-rule="evenodd" clip-rule="evenodd" d="M6.03742 2.52573C3.56032 3.3916 5.01624 7.1558 7.45397 6.18998C9.6886 5.30463 8.63171 1.61888 6.03742 2.52573Z" fill="#FDFDFD"/>
<path fill-rule="evenodd" clip-rule="evenodd" d="M4.01711 10.5432C3.70597 8.9485 5.23935 9.20458 6.24758 9.20194C7.06239 9.19984 9.03765 8.88757 9.34732 9.80176C9.87581 11.3619 8.19655 10.9733 7.19233 10.9755C6.57586 10.9769 4.15277 11.2384 4.01711 10.5432ZM5.64124 6.47637C6.81843 6.71654 6.56488 6.74018 7.79385 6.48853L8.29047 8.81713L5.12958 8.84882L5.64124 6.47637ZM6.03746 2.52577C8.63174 1.61892 9.68863 5.30467 7.45401 6.19003C5.01628 7.15584 3.56036 3.39164 6.03746 2.52577ZM0.567977 0.135533C-0.231074 0.431128 0.046719 2.1461 0.0467636 2.85681C0.0467636 4.36398 -0.0304631 12.2755 0.124035 12.6551C0.461824 13.4853 2.07341 13.2047 2.82286 13.2047C4.40066 13.2047 12.1709 13.2928 12.6325 13.1463C13.4916 12.8738 13.2041 11.1662 13.2041 10.4249C13.2041 8.89794 13.2891 0.977842 13.1196 0.584535C12.7656 -0.236677 11.1174 0.0475647 10.3809 0.0475647C8.80829 0.0476094 1.03674 -0.0379 0.567977 0.135533Z" fill="#235390"/>
<path fill-rule="evenodd" clip-rule="evenodd" d="M3.50891 25.5325C4.08406 25.8418 8.88508 25.6442 9.95955 25.6474C9.76641 25.2636 9.82954 25.378 9.2254 25.3806C8.08972 25.3853 3.98103 25.2223 3.50891 25.5325Z" fill="#FDFBFB"/>
<path fill-rule="evenodd" clip-rule="evenodd" d="M5.84158 19.0746C5.99293 19.3025 6.43722 19.658 6.72489 20.0329L7.59576 19.0468C7.13751 18.4318 6.24579 18.407 5.84158 19.0746Z" fill="#F27C39"/>
<path fill-rule="evenodd" clip-rule="evenodd" d="M3.50311 24.8256C3.81695 25.197 6.16118 25.0276 6.73525 25.0277L9.22801 25.0355C9.75448 25.0404 9.72209 25.1384 9.95706 24.8256C9.53961 24.5077 5.85781 24.6577 5.07829 24.6583C4.51576 24.6587 3.89063 24.5403 3.50311 24.8256Z" fill="#FEFAF8"/>
<path fill-rule="evenodd" clip-rule="evenodd" d="M6.63683 21.2454C7.26133 21.0577 6.57062 20.2662 7.69368 19.5378C8.31746 19.1332 9.39175 19.163 9.99075 19.5833C11.421 20.5868 9.27324 21.1416 9.43935 23.8968L4.00047 23.9358C4.16483 21.0617 2.11288 20.7484 3.34228 19.6846C3.89471 19.2066 4.96896 19.1187 5.61761 19.461C6.64122 20.0012 6.30174 20.5604 6.63683 21.2454ZM5.84166 19.0748C6.24587 18.4072 7.13758 18.432 7.59584 19.047L6.72497 20.0331C6.4373 19.6582 5.99301 19.3027 5.84166 19.0748ZM6.01618 17.6422C6.39001 18.2234 6.15742 17.4124 6.56292 18.1234C6.04486 18.5103 5.97753 18.386 5.43562 18.9596C4.22903 18.8113 2.30056 19.0931 2.66043 20.7507C2.9808 22.226 4.07317 21.8396 3.47489 24.1733C4.01908 24.4156 9.10937 24.3631 9.94713 24.2579C9.87595 23.4033 9.54006 23.2985 9.98645 22.2862C10.2002 21.8015 10.6773 21.1906 10.7859 20.7318C11.167 19.1216 9.22251 18.7832 8.03082 18.9652C7.48811 18.3706 7.24572 18.4525 6.89206 18.1015C7.11839 17.504 7.0932 18.2 7.44484 17.6599C6.85623 17.2127 7.29752 17.7403 6.75011 17.0396C6.29069 17.3517 6.77131 17.0761 6.47135 17.3588C6.34295 17.4797 6.45412 17.3994 6.26833 17.5173C6.18623 17.5694 6.25294 17.4843 6.01618 17.6422Z" fill="#FEFAF8"/>
<path fill-rule="evenodd" clip-rule="evenodd" d="M6.63738 21.2453C6.3023 20.5603 6.64177 20.0011 5.61816 19.4609C4.96951 19.1186 3.89526 19.2065 3.34283 19.6845C2.11343 20.7483 4.16539 21.0616 4.00102 23.9357L9.43991 23.8967C9.2738 21.1415 11.4216 20.5867 9.9913 19.5832C9.39231 19.1629 8.31801 19.1331 7.69423 19.5377C6.57117 20.2661 7.26188 21.0576 6.63738 21.2453Z" fill="#F27C39"/>
<path fill-rule="evenodd" clip-rule="evenodd" d="M3.50827 25.5327C3.98039 25.2225 8.08908 25.3855 9.22475 25.3808C9.82889 25.3782 9.76577 25.2638 9.9589 25.6476C8.88443 25.6444 4.08342 25.842 3.50827 25.5327ZM3.50276 24.8262C3.89028 24.5408 4.51541 24.6593 5.07794 24.6588C5.85746 24.6582 9.53926 24.5082 9.95671 24.8262C9.72175 25.1389 9.75414 25.0409 9.22766 25.036L6.7349 25.0283C6.16083 25.0282 3.8166 25.1975 3.50276 24.8262ZM6.01641 17.6423C6.25316 17.4844 6.18646 17.5695 6.26855 17.5174C6.45435 17.3995 6.34318 17.4799 6.47158 17.3589C6.77154 17.0762 6.29092 17.3518 6.75034 17.0397C7.29775 17.7404 6.85646 17.2129 7.44507 17.6601C7.09343 18.2002 7.11862 17.5041 6.89229 18.1016C7.24595 18.4526 7.48834 18.3707 8.03105 18.9654C9.22274 18.7833 11.1672 19.1217 10.7861 20.7319C10.6775 21.1907 10.2004 21.8017 9.98669 22.2863C9.54029 23.2986 9.87618 23.4035 9.94736 24.258C9.1096 24.3632 4.01931 24.4157 3.47511 24.1734C4.0734 21.8397 2.98103 22.2261 2.66066 20.7508C2.30079 19.0932 4.22926 18.8114 5.43585 18.9597C5.97776 18.3861 6.04509 18.5105 6.56315 18.1235C6.15765 17.4125 6.39024 18.2236 6.01641 17.6423ZM0.0559686 27.1306C0.228165 28.1749 1.78013 27.8881 2.59252 27.888C3.69715 27.8879 4.80177 27.888 5.90645 27.888C13.8151 27.888 13.2335 28.6495 13.2333 25.2972C13.2331 23.3195 13.3705 16.5336 13.2155 15.5404C13.0457 14.4519 11.4624 14.7866 10.6406 14.7867C9.53595 14.7868 8.43132 14.7867 7.3267 14.7867C-0.49498 14.7867 0.0468421 14.0188 0.047021 17.407L0.0559686 27.1306Z" fill="#F27C39"/>
<path fill-rule="evenodd" clip-rule="evenodd" d="M21.8563 18.3441C22.1352 18.2054 22.3528 17.9266 22.4327 17.5568L21.0494 18.3564C20.6846 17.9046 20.9939 17.8827 20.6955 17.4043L20.2809 18.6169C20.6519 18.3526 20.5125 18.4295 20.675 18.0398L20.8638 18.6082L21.9346 18.0137L21.8563 18.3441Z" fill="#99AECA"/>
<path fill-rule="evenodd" clip-rule="evenodd" d="M21.8568 18.3441C21.5757 18.4925 21.6469 18.4095 21.4941 18.8131L22.227 19.1956C21.8176 19.3053 21.8032 19.2209 21.5108 19.4276C21.9685 19.4702 22.6438 19.4683 22.9513 19.1867L21.7668 18.7871L21.8568 18.3441Z" fill="#8FA8C7"/>
<path fill-rule="evenodd" clip-rule="evenodd" d="M18.817 18.4728L19.5138 19.1365C19.0823 19.3751 18.3315 19.6015 18.1279 19.9684L19.4304 19.9874C19.3702 20.4108 19.1196 20.9911 19.2389 21.3128L19.8738 20.5766C19.7518 20.5203 20.0142 20.1603 19.5172 20.7001L19.7213 19.9083L18.7876 19.7778L19.799 19.208L19.4028 18.7466L20.0464 18.8133C19.5934 18.5242 19.1655 18.2664 18.817 18.4728Z" fill="#90A8C7"/>
<path fill-rule="evenodd" clip-rule="evenodd" d="M21.1522 21.9311L20.1208 22.0276C19.8541 22.9784 20.8916 23.1864 21.6514 23.6757C22.0199 23.9131 22.3182 24.1871 22.6635 24.4387C23.1175 24.7697 23.1852 24.9647 23.5698 25.2892L25.839 24.167C25.5439 23.3077 25.2743 20.7814 24.2935 20.4303C23.2682 20.0632 22.7211 20.4016 22.5795 20.4228C21.9858 20.5118 22.3513 20.3976 21.7557 20.6221C21.5171 20.2961 21.3846 19.8659 21.1857 19.5267C20.8639 18.9778 20.2231 18.9748 20.1464 19.5699C20.0673 20.1833 21.0458 21.2553 21.1522 21.9311Z" fill="#FCFCFC"/>
<path fill-rule="evenodd" clip-rule="evenodd" d="M22.6637 24.4388C22.3185 24.1872 22.0201 23.9132 21.6516 23.6758C20.8918 23.1865 19.8543 22.9785 20.121 22.0277L21.1524 21.9312C21.046 21.2555 20.0675 20.1834 20.1466 19.57C20.2234 18.9749 20.8641 18.9779 21.1859 19.5268C21.3848 19.866 21.5173 20.2962 21.7559 20.6222C22.3515 20.3977 21.986 20.5119 22.5797 20.4229C22.7213 20.4017 23.2684 20.0633 24.2937 20.4304C25.2746 20.7815 25.5441 23.3078 25.8392 24.1672L23.57 25.2893C23.1854 24.9648 23.1177 24.7698 22.6637 24.4388ZM21.8568 18.3439L21.7668 18.7869L22.9513 19.1865C22.6439 19.4681 21.9685 19.47 21.5108 19.4274C21.8033 19.2207 21.8176 19.3051 22.227 19.1954L21.4942 18.8129C21.6469 18.4093 21.5757 18.4923 21.8568 18.3439ZM18.8173 18.4729C19.1658 18.2665 19.5937 18.5244 20.0466 18.8135L19.4031 18.7468L19.7993 19.2082L18.7879 19.778L19.7216 19.9085L19.5174 20.7003C20.0144 20.1604 19.7521 20.5205 19.874 20.5767L19.2392 21.313C19.1199 20.9913 19.3705 20.4109 19.4307 19.9876L18.1282 19.9686C18.3318 19.6017 19.0826 19.3753 19.5141 19.1366L18.8173 18.4729ZM21.8568 18.3439L21.9351 18.0135L20.8643 18.6081L20.6755 18.0397C20.513 18.4293 20.6524 18.3525 20.2814 18.6168L20.696 17.4041C20.9944 17.8825 20.6851 17.9045 21.0499 18.3562L22.4332 17.5566C22.3533 17.9264 22.1357 18.2052 21.8568 18.3439ZM28.4809 27.5115C28.7076 27.0566 28.5945 19.2384 28.5945 17.6586C28.5945 16.9532 28.909 15.23 28.1599 14.8946C27.6782 14.6788 19.9218 14.7868 18.3279 14.7868C17.5938 14.7868 15.9045 14.5567 15.5662 15.2424C15.3394 15.7018 15.4532 23.5296 15.4532 25.119C15.4532 25.8158 15.1954 27.5552 15.935 27.8701C16.3618 28.0518 24.2114 27.961 25.7596 27.961C26.452 27.961 28.1396 28.1961 28.4809 27.5115Z" fill="#235390"/>
<path fill-rule="evenodd" clip-rule="evenodd" d="M21.6879 11.3275L24.143 11.2639C24.1419 10.4939 24.0733 10.5014 23.8218 9.89806C23.5782 9.31387 23.7237 9.0554 23.4861 8.45904C23.168 7.66085 22.601 6.92288 21.959 6.42451C22.3763 6.27749 22.239 6.43708 22.5994 6.15543C21.7762 6.25427 21.7543 6.21574 21.0889 5.85486C21.7459 6.96865 23.1683 7.8744 22.5548 9.49333L21.4319 9.61144C22.0492 9.9551 21.8218 9.32859 22.202 9.98405C21.6191 10.2875 21.4283 9.94508 20.991 10.2734L21.6793 10.4301L21.6879 11.3275Z" fill="#F6A779"/>
<path fill-rule="evenodd" clip-rule="evenodd" d="M22.571 4.40595C22.8893 4.61063 22.678 4.73942 22.9882 4.34232C22.6663 3.94195 22.7517 4.25685 22.571 4.40595Z" fill="#F28242"/>
<path fill-rule="evenodd" clip-rule="evenodd" d="M22.5707 4.4056C22.7514 4.25653 22.666 3.94168 22.9879 4.34198C22.6777 4.73902 22.889 4.61025 22.5707 4.4056ZM21.6878 11.3274L21.6792 10.43L20.9909 10.2733C21.4282 9.945 21.619 10.2875 22.2019 9.98397C21.8217 9.32851 22.0491 9.95503 21.4319 9.61137L22.5547 9.49325C23.1682 7.87432 21.7459 6.96858 21.0888 5.85478C21.7542 6.21566 21.7762 6.25419 22.5993 6.15535C23.9402 5.94681 23.519 7.02119 24.7157 6.41709C25.8472 5.53193 23.4047 3.99957 22.7255 3.42326C22.1489 2.93388 22.2703 2.43031 22.1177 2.09775C21.5621 2.21197 21.6434 2.22701 21.3406 2.6797C20.848 3.41619 19.9211 3.09047 19.3311 4.81168C18.7236 6.58398 19.6623 7.80918 19.9008 9.48945L19.3897 10.2113C19.1165 10.7276 19.1897 10.4684 19.1917 11.2349L21.6878 11.3274Z" fill="#FCFCFC"/>
<path fill-rule="evenodd" clip-rule="evenodd" d="M22.5999 6.15554C22.2395 6.43719 22.3768 6.27759 21.9595 6.42461C22.6015 6.92299 23.1685 7.66096 23.4866 8.45914C23.7242 9.0555 23.5787 9.31398 23.8223 9.89817C24.0738 10.5015 24.1424 10.494 24.1435 11.264L21.6884 11.3276L19.1923 11.2351C19.1903 10.4686 19.1171 10.7278 19.3903 10.2115L19.9014 9.48963C19.6629 7.80936 18.7242 6.58416 19.3317 4.81186C19.9217 3.09066 20.8486 3.41638 21.3412 2.67989C21.644 2.22719 21.5627 2.21216 22.1183 2.09793C22.2709 2.4305 22.1495 2.93406 22.7261 3.42344C23.4053 3.99976 25.8478 5.53211 24.7163 6.41728C23.5196 7.02138 23.9407 5.947 22.5999 6.15554ZM28.4579 12.8105C28.7335 12.3688 28.6064 4.54731 28.6065 2.97795C28.6065 2.25064 28.8836 0.509878 28.1206 0.14698C27.6738 -0.0655421 19.8971 0.047475 18.3302 0.047475C17.6586 0.0474303 15.9219 -0.186434 15.5805 0.458784C15.338 0.91725 15.4524 8.73583 15.4524 10.3165C15.4524 11.0891 15.1684 12.7823 15.9933 13.1327C16.3985 13.3048 24.2452 13.2172 25.7691 13.2172C26.4529 13.2173 28.063 13.4432 28.4579 12.8105Z" fill="#F27C39"/>
</svg>
