<svg width="29" height="29" viewBox="0 0 29 29" fill="none" xmlns="http://www.w3.org/2000/svg">
<g clip-path="url(#clip0)">
<path d="M14.6602 28.1406C22.4029 28.1406 28.6797 21.8639 28.6797 14.1211C28.6797 6.37832 22.4029 0.101562 14.6602 0.101562C6.91738 0.101562 0.640625 6.37832 0.640625 14.1211C0.640625 21.8639 6.91738 28.1406 14.6602 28.1406Z" fill="#235390"/>
<path d="M28.6556 14.1386C28.6556 13.0872 28.5389 12.063 28.3195 11.0776L20.3801 5.76562L13.0339 6.38248L7.63957 14.027L11.3074 17.7174L13.5386 23.8228L16.5668 28.0263C17.0018 28.0669 14.1905 28.1582 14.636 28.1582C22.3788 28.1582 28.6556 21.8814 28.6556 14.1386Z" fill="#235390"/>
<path d="M14.6642 23.9349C14.0785 23.9349 13.5036 23.7748 13.0015 23.4718C11.4647 22.5445 9.75744 20.957 8.19418 19.0017C6.63603 17.0528 5.46616 15.0469 4.90003 13.3536C4.64058 12.5775 4.68697 11.7415 5.03067 10.9997C5.97545 8.96096 8.24286 6.17398 9.98199 4.91389C10.5294 4.51727 11.1765 4.30762 11.8533 4.30762C12.2297 4.30762 12.5995 4.37344 12.9525 4.50323C13.5138 4.70966 14.0887 4.97711 14.6642 5.29945C15.2399 4.97711 15.8147 4.70966 16.376 4.50323C16.7289 4.37344 17.0987 4.30762 17.4752 4.30762C18.152 4.30762 18.799 4.51727 19.3464 4.91381C21.0856 6.17398 23.353 8.96092 24.2977 10.9997C24.6415 11.7415 24.6879 12.5775 24.4284 13.3536C23.8623 15.0469 22.6924 17.0528 21.1343 19.0016C19.571 20.957 17.8637 22.5445 16.3269 23.4718C15.8249 23.7748 15.2499 23.9349 14.6642 23.9349Z" fill="#FFDF47"/>
<path d="M18.793 21.5543C11.1348 18.4599 10.1454 7.27178 11.051 4.40967C10.6693 4.50846 10.3079 4.67774 9.98199 4.91385C8.24286 6.17394 5.97545 8.96092 5.03067 10.9997C4.68697 11.7415 4.64058 12.5775 4.90003 13.3536C5.46616 15.0469 6.63603 17.0528 8.19418 19.0017C9.75744 20.957 11.4647 22.5445 13.0015 23.4718C13.5036 23.7748 14.0786 23.9349 14.6642 23.9349C15.2499 23.9349 15.8249 23.7748 16.327 23.4718C17.1181 22.9944 17.9544 22.3417 18.793 21.5543Z" fill="#FDC000"/>
<path d="M22.7901 12.313L16.9668 10.0107L14.6644 7.16292C14.4202 7.16292 14.176 7.09926 13.9573 6.97196C13.499 6.70529 12.9411 6.42023 12.3304 6.19564C11.8982 6.03668 11.4129 6.10398 11.04 6.37415C9.56356 7.4439 7.48471 9.99276 6.66669 11.7581C6.58535 11.9336 6.54276 12.1228 6.53888 12.313L12.9627 14.0147L14.6644 22.1325C14.9175 22.1325 15.1706 22.0645 15.3958 21.9286C18.2126 20.229 21.6864 15.8708 22.7188 12.7824C22.7698 12.6299 22.7932 12.4711 22.7901 12.313Z" fill="#FFC203"/>
<path d="M17.3635 18.7204C17.9167 18.7204 18.4318 18.4724 18.7768 18.0399C19.1218 17.6074 19.2491 17.0501 19.1262 16.5108L19.0495 16.1739C18.9237 15.622 18.5798 15.1717 18.1201 14.9044C18.0439 14.5891 17.9747 14.2679 17.9178 13.9788C18.3854 13.5748 18.6817 12.9777 18.6817 12.3127C18.6817 11.6146 18.3552 10.9914 17.8468 10.5877C17.6582 8.99919 16.303 7.76318 14.6646 7.76318C13.0262 7.76318 11.671 8.99919 11.4823 10.5877C10.974 10.9913 10.6474 11.6146 10.6474 12.3127C10.6474 12.9777 10.9437 13.5748 11.4113 13.9788C11.3544 14.2679 11.2852 14.5891 11.209 14.9044C10.7493 15.1717 10.4055 15.622 10.2797 16.174L10.203 16.5107C10.08 17.0501 10.2074 17.6074 10.5523 18.0399C10.8973 18.4724 11.4125 18.7204 11.9657 18.7204H17.3635Z" fill="#FFE87C"/>
<path d="M6.53917 12.3125C6.53595 12.4706 6.55938 12.6294 6.61039 12.7819C7.64291 15.8703 11.1166 20.2285 13.9334 21.9281C14.1587 22.064 14.4117 22.132 14.6648 22.132V12.3125H6.53917Z" fill="#3278FF"/>
<path d="M22.7895 12.313C22.7856 12.1228 22.7431 11.9336 22.6617 11.7581C21.8437 9.99277 19.7648 7.44391 18.2883 6.37415C17.9154 6.10395 17.4301 6.03669 16.9979 6.19565C16.3873 6.42024 15.8293 6.7053 15.3711 6.97197C15.1523 7.09927 14.9081 7.16293 14.6639 7.16293V12.313H22.7895V12.313Z" fill="#3278FF"/>
<path d="M14.6646 18.7202V12.3125H10.6474C10.6474 12.9775 10.9437 13.5746 11.4113 13.9786C11.3544 14.2677 11.2852 14.5889 11.209 14.9043C10.7493 15.1715 10.4055 15.6218 10.2797 16.1738L10.203 16.5105C10.08 17.0499 10.2074 17.6073 10.5523 18.0397C10.8973 18.4722 11.4125 18.7202 11.9657 18.7202H14.6646V18.7202Z" fill="#52ACFF"/>
<path d="M17.8462 10.5877C17.6575 8.99919 16.3023 7.76318 14.6639 7.76318V12.3127H18.681C18.681 11.6146 18.3545 10.9914 17.8462 10.5877Z" fill="#52ACFF"/>
<path d="M16.9756 16.0359C16.6805 15.0511 16.4008 13.5953 16.3679 13.1157H12.9612C12.9283 13.5953 12.6486 15.0511 12.3535 16.0359H16.9756Z" fill="white"/>
<path d="M17.3635 17.3218H11.9656C11.7028 17.3218 11.5082 17.0777 11.5665 16.8215L11.6433 16.4847C11.7031 16.2223 11.9364 16.0361 12.2055 16.0361H17.1236C17.3927 16.0361 17.6261 16.2223 17.6858 16.4847L17.7626 16.8215C17.821 17.0777 17.6263 17.3218 17.3635 17.3218Z" fill="#EEC076"/>
<path d="M15.4308 12.5991C16.3335 12.1752 16.7217 11.0997 16.2977 10.197C15.8738 9.29426 14.7983 8.90612 13.8956 9.33005C12.9928 9.75399 12.6047 10.8295 13.0286 11.7322C13.4526 12.6349 14.528 13.0231 15.4308 12.5991Z" fill="white"/>
<path d="M16.4796 11.5093H12.8491C12.4055 11.5093 12.0458 11.8689 12.0458 12.3126C12.0458 12.7562 12.4055 13.1158 12.8491 13.1158H16.4796C16.9232 13.1158 17.2829 12.7562 17.2829 12.3126C17.2829 11.8689 16.9232 11.5093 16.4796 11.5093Z" fill="#EEC076"/>
</g>
<defs>
<clipPath id="clip0">
<rect width="28.0391" height="28.0391" fill="white" transform="translate(0.640625 0.101562)"/>
</clipPath>
</defs>
</svg>
