<svg width="30" height="29" viewBox="0 0 30 29" fill="none" xmlns="http://www.w3.org/2000/svg">
<g clip-path="url(#clip0)">
<path d="M15.0233 28.3827C22.7898 28.3827 29.0858 22.0867 29.0858 14.3203C29.0858 6.55379 22.7898 0.257812 15.0233 0.257812C7.25685 0.257812 0.960876 6.55379 0.960876 14.3203C0.960876 22.0867 7.25685 28.3827 15.0233 28.3827Z" fill="#235390"/>
<path d="M11.9297 28.1014C13.8997 29.152 12.6349 28.3827 15.0234 28.3827C22.7899 28.3827 29.0859 22.0867 29.0859 14.3202C29.0859 11.932 30.0669 17.6963 29.0165 15.7264L22.8984 7.71338L6.86725 21.6327L11.9297 28.1014Z" fill="#235390"/>
<path d="M7.58839 8.69629H21.9834V20.5069H7.58839V8.69629Z" fill="white"/>
<path d="M7.88565 18.0522H10.1858V20.3524H7.88565V18.0522Z" fill="#235390"/>
<path d="M7.88565 13.4517H10.1858V15.7518H7.88565V13.4517Z" fill="#235390"/>
<path d="M10.1859 15.752H12.4861V18.0521H10.1859V15.752Z" fill="#235390"/>
<path d="M10.1859 11.1519H12.4861V13.452H10.1859V11.1519Z" fill="#235390"/>
<path d="M7.88565 8.85156H10.1858V11.1517H7.88565V8.85156Z" fill="#235390"/>
<path d="M12.4859 18.0522H14.7861V20.3524H12.4859V18.0522Z" fill="#235390"/>
<path d="M14.7862 8.69629H21.984V20.5073H14.7862V8.69629Z" fill="#DAEAEC"/>
<path d="M12.4859 13.4517H14.7861V15.7518H12.4859V13.4517Z" fill="#235390"/>
<path d="M14.7862 15.752H17.0864V18.0521H14.7862V15.752Z" fill="#235390"/>
<path d="M14.7862 11.1519H17.0864V13.452H14.7862V11.1519Z" fill="#235390"/>
<path d="M12.4859 8.85156H14.7861V11.1517H12.4859V8.85156Z" fill="#235390"/>
<path d="M17.0865 18.0522H19.3867V20.3524H17.0865V18.0522Z" fill="#235390"/>
<path d="M17.0865 13.4517H19.3867V15.7518H17.0865V13.4517Z" fill="#235390"/>
<path d="M19.3864 15.752H21.6865V18.0521H19.3864V15.752Z" fill="#235390"/>
<path d="M19.3864 11.1519H21.6865V13.452H19.3864V11.1519Z" fill="#235390"/>
<path d="M17.0863 8.85156H19.3865V11.1517H17.0863V8.85156Z" fill="#235390"/>
<path d="M22.9859 7.57031V21.6328H6.58598V7.57031H22.9859ZM21.6665 20.3133V8.88978H7.90546V20.3133H21.6665V20.3133Z" fill="#FFDD54"/>
<path d="M14.786 8.88979H21.6667V20.3129H14.786V21.6324H22.9861V7.57031H14.786V8.88979Z" fill="#ECBE00"/>
</g>
<defs>
<clipPath id="clip0">
<rect width="28.1249" height="28.1249" fill="white" transform="translate(0.960876 0.257812)"/>
</clipPath>
</defs>
</svg>
