<svg width="30" height="29" viewBox="0 0 30 29" fill="none" xmlns="http://www.w3.org/2000/svg">
<g clip-path="url(#clip0)">
<path d="M15.0233 28.7733C22.7898 28.7733 29.0858 22.4774 29.0858 14.7109C29.0858 6.94441 22.7898 0.648438 15.0233 0.648438C7.25685 0.648438 0.960876 6.94441 0.960876 14.7109C0.960876 22.4774 7.25685 28.7733 15.0233 28.7733Z" fill="#235390"/>
<path d="M11.9294 28.4921C13.5108 29.1079 12.9427 28.7734 14.7419 28.7734C22.4021 28.7734 26.5544 24.5546 28.8044 17.8047L26.5544 15.8359L24.0232 13.5859L18.1169 7.96094L5.17946 20.6171L11.9294 28.4921Z" fill="#235390"/>
<path d="M24.5616 20.6841H18.2704V12.4728H24.5616V20.6841Z" fill="#FEBE40"/>
<path d="M11.9789 20.6841H5.68757V10.208H11.9789V20.6841Z" fill="#FAD87C"/>
<path d="M18.27 20.6841H11.9787V7.39837H18.27V20.6841Z" fill="#00E4EF"/>
<path d="M15.2749 7.39844H18.2704V20.6841H15.2749V7.39844Z" fill="#5ECBF1"/>
<path d="M25.3509 21.4609H4.89841V19.1863H25.3509V21.4609Z" fill="white"/>
<path d="M15.2751 19.1863H25.3515V21.4607H15.2751V19.1863Z" fill="white"/>
<path d="M14.2647 10.0294H14.9128V13.0616H15.6517V9.29053H14.2647V10.0294Z" fill="white"/>
<path d="M15.275 9.29053H15.6514V13.0615H15.275V9.29053Z" fill="#DAEAEC"/>
<path d="M9.50331 13.9032C9.69903 13.6236 9.82671 13.3589 9.88292 13.1166L9.90745 12.9394V12.9158C9.90745 12.2843 9.39366 11.7705 8.76213 11.7705C8.21607 11.7705 7.74341 12.159 7.63834 12.6943L7.56715 13.0568L8.29223 13.1992L8.36341 12.8367C8.40065 12.6471 8.56834 12.5094 8.76218 12.5094C8.97962 12.5094 9.15775 12.6811 9.16814 12.896L9.15917 12.966C9.12193 13.1124 9.0341 13.285 8.89799 13.4796C8.16957 14.5203 7.8508 14.8618 7.84843 14.8644L7.74696 14.9709L7.74474 15.588L10.0349 15.5951L10.0372 14.8562L8.81114 14.8524C8.98405 14.6275 9.21277 14.3183 9.50331 13.9032Z" fill="white"/>
<path d="M22.5616 14.9122C22.5616 14.2806 22.0478 13.7668 21.4163 13.7668C20.8703 13.7668 20.3977 14.1553 20.2925 14.6905L20.2213 15.0531L20.9463 15.1955L21.0176 14.833C21.0548 14.6434 21.2225 14.5058 21.4163 14.5058C21.6404 14.5058 21.8227 14.6881 21.8227 14.9122C21.8227 15.1363 21.6404 15.3186 21.4163 15.3186H21.0469V16.0575H21.4163C21.6404 16.0575 21.8227 16.2398 21.8227 16.4639C21.8227 16.688 21.6404 16.8703 21.4163 16.8703C21.2146 16.8703 21.0417 16.7201 21.0139 16.5209C21.0112 16.5023 21.0099 16.4831 21.0099 16.4639V16.0944H20.271V16.4639C20.271 16.5172 20.2747 16.5709 20.2821 16.6232C20.3605 17.1853 20.8481 17.6092 21.4163 17.6092C22.0478 17.6092 22.5616 17.0954 22.5616 16.4639C22.5616 16.1648 22.4463 15.8922 22.2578 15.688C22.4463 15.4838 22.5616 15.2113 22.5616 14.9122Z" fill="#DAEAEC"/>
</g>
<defs>
<clipPath id="clip0">
<rect width="28.1249" height="28.1249" fill="white" transform="translate(0.960876 0.648438)"/>
</clipPath>
</defs>
</svg>
