<svg width="25" height="26" viewBox="0 0 25 26" fill="none" xmlns="http://www.w3.org/2000/svg">
<path d="M25 12.8C25 19.7037 19.4037 25.3 12.5 25.3C5.59634 25.3 0 19.7037 0 12.8C0 5.89634 5.59634 0.300003 12.5 0.300003C19.4037 0.300003 25 5.89634 25 12.8Z" fill="#D85E91"/>
<path d="M25 12.8C25 14.072 24.81 15.2996 24.4566 16.4558C24.2109 17.26 23.8867 18.0296 23.4922 18.7561C23.0894 19.4982 22.6133 20.1946 22.0737 20.8366C22.0453 20.8704 22.0171 20.904 21.9883 20.9371C19.6962 23.6082 16.2954 25.3 12.5 25.3C8.70459 25.3 5.30376 23.6082 3.01226 20.9371C2.9835 20.9036 2.95469 20.8698 2.92681 20.836C2.38667 20.1946 1.9106 19.4982 1.50835 18.7561C1.34775 18.4616 1.19917 18.1599 1.06299 17.8512C0.379395 16.3068 0 14.5979 0 12.8C0 10.5432 0.598145 8.42647 1.64453 6.59883C3.79888 10.362 7.85352 12.8977 12.5 12.8977C17.1465 12.8977 21.2017 10.362 23.3555 6.59883C24.4019 8.42647 25 10.5432 25 12.8Z" fill="#C43071"/>
<path d="M23.4992 18.7423C23.1496 19.388 22.7456 19.9993 22.292 20.57C21.8801 21.0892 21.4269 21.5744 20.9386 22.0213C18.715 24.0574 15.7525 25.3 12.5001 25.3C9.24771 25.3 6.28521 24.0574 4.06162 22.0213C3.57334 21.5744 3.12012 21.0892 2.70815 20.57C2.25459 19.9993 1.85059 19.388 1.50098 18.7423H23.4992Z" fill="#881155"/>
<path d="M20.7856 15.7266L18.0251 9.71372C17.1577 8.82856 16.0826 8.14697 14.874 7.75796L13.827 6.3145L12.5001 6.48344L7.68843 7.0958L5.73755 9.76801L6.92656 20.4935C7.80254 21.4042 8.89341 22.1108 10.1258 22.5075L11.1731 23.9469L12.5001 23.7373L16.1201 23.1656L20.8421 18.7058L20.7856 15.7266Z" fill="#8AB8EC"/>
<path d="M20.8422 18.7059L20.7857 15.7266L18.0253 9.71372C17.1579 8.82856 16.0828 8.14697 14.8741 7.75796L13.8271 6.3145L12.5002 6.48344V23.7373L16.1202 23.1656L20.8422 18.7059Z" fill="#6991E6"/>
<path d="M19.8613 12.7272C19.4871 11.5805 18.8496 10.555 18.0251 9.71378C17.9697 9.73082 17.9226 9.76802 17.8627 9.76802H14.2876C13.3019 9.76802 12.5 10.5699 12.5 11.5556C12.5 12.5413 13.3019 13.3431 14.2876 13.3431H15.4793C15.8081 13.3431 16.0751 13.6102 16.0751 13.939C16.0751 14.9247 16.877 15.7265 17.8627 15.7265H20.7854L20.753 14.018L19.8613 12.7272Z" fill="#A8EB58"/>
<path d="M9.52095 18.7059C9.52095 18.3771 9.78804 18.11 10.1168 18.11H10.7126C11.6984 18.11 12.5002 17.3082 12.5002 16.3225C12.5002 15.3368 11.6983 14.5349 10.7126 14.5349H8.9251C8.59634 14.5349 8.32925 14.2678 8.32925 13.9391V9.76807H5.73774L4.46538 11.5108L3.68579 16.4691L5.13901 17.5343C5.50552 18.6573 6.1269 19.6619 6.92671 20.4934H7.73335C8.71909 20.4934 9.52095 19.6916 9.52095 18.7059Z" fill="#CDFA89"/>
<path d="M6.6126 9.76797H5.73774L4.46538 11.5107L3.68579 16.4691L5.13901 17.5343C5.45596 18.5055 5.96387 19.3878 6.6126 20.1465V9.76797Z" fill="#E6FCC4"/>
<path d="M10.1104 10.551C10.1858 9.57731 9.66665 8.72628 8.88516 8.29049C10.0364 7.68288 11.2792 7.39816 12.501 7.39582C13.3056 7.3943 14.1211 7.51774 14.8749 7.75793C15.4702 7.94762 16.1023 7.76066 16.377 7.07785C16.6363 6.43449 16.2943 5.67047 15.6415 5.45768C14.6302 5.12843 13.5735 4.96144 12.5011 4.96144C6.91548 4.96144 2.33179 9.54518 2.33179 15.1307C2.33179 16.2241 2.54492 17.2988 2.88589 18.3265L2.88647 18.3271C3.10479 18.9832 3.83188 19.3134 4.47329 19.0515C5.01982 18.8263 5.36103 18.2054 5.13984 17.5343C4.50259 15.5827 4.66519 13.4014 5.66084 11.5149C6.09663 12.2964 6.94766 12.8155 7.92134 12.7401C9.08384 12.6499 10.0203 11.7135 10.1104 10.551Z" fill="#F7DE82"/>
<path d="M6.57861 6.8813C4.01216 8.73355 2.33081 11.7482 2.33081 15.1307C2.33081 16.2241 2.54395 17.2988 2.88491 18.3265L2.8855 18.3271C3.10381 18.9832 3.83091 19.3134 4.47231 19.0515C5.01885 18.8263 5.36006 18.2054 5.13887 17.5343C4.50161 15.5827 4.66421 13.4014 5.65986 11.5149C5.87588 11.9023 6.19409 12.2251 6.57856 12.4431V6.8813H6.57861Z" fill="#FCF4C2"/>
<path d="M22.6685 14.9939C22.6546 13.9477 22.4818 12.9197 22.155 11.935L22.1544 11.9344C21.9362 11.2782 21.1693 10.948 20.5279 11.2099C19.9813 11.4351 19.6401 12.056 19.8613 12.7271C20.483 14.6312 20.3562 16.8067 19.3626 18.7083C19.3558 18.7215 19.3472 18.7334 19.3403 18.7465C18.9045 17.965 18.0535 17.4459 17.0798 17.5214C15.9173 17.6115 14.9809 18.5479 14.8908 19.7104C14.8154 20.6841 15.3345 21.5351 16.116 21.9709C14.9666 22.5775 13.7237 22.8632 12.5001 22.8656C11.6909 22.8672 10.8859 22.7512 10.1266 22.5074C9.70139 22.3709 8.93494 22.4108 8.62415 23.1835C8.36482 23.8269 8.70686 24.5909 9.35965 24.8037C10.371 25.133 11.4277 25.2999 12.5001 25.2999C12.5037 25.2999 12.5073 25.3 12.5109 25.3C18.1273 25.2941 22.7429 20.6098 22.6685 14.9939Z" fill="#F7DE82"/>
<path d="M22.6686 14.9939C22.6547 13.9477 22.4819 12.9197 22.1551 11.9349L22.1545 11.9344C21.9363 11.2782 21.1694 10.948 20.528 11.2099C19.9814 11.4351 19.6402 12.056 19.8614 12.7271C20.4831 14.6312 20.3563 16.8067 19.3627 18.7083C19.3559 18.7215 19.3473 18.7334 19.3404 18.7465C18.9046 17.965 18.0537 17.4459 17.0799 17.5214C15.9174 17.6115 14.981 18.5479 14.8909 19.7104C14.8155 20.6841 15.3346 21.5351 16.1161 21.9709C14.9667 22.5775 13.7238 22.8632 12.5002 22.8656V25.2999C12.5039 25.2999 12.5074 25.3 12.511 25.3C18.1274 25.2941 22.743 20.6098 22.6686 14.9939Z" fill="#EFC142"/>
<path d="M16.3762 7.07788C16.6355 6.43452 16.2935 5.67051 15.6407 5.45771C14.6294 5.12842 13.5727 4.96143 12.5002 4.96143V7.39585C13.3048 7.39434 14.1204 7.51777 14.8741 7.75796C15.4694 7.94766 16.1016 7.76069 16.3762 7.07788Z" fill="#EFC142"/>
<path d="M20.9152 6.32767H20.8408C20.511 6.32767 20.2438 6.06024 20.2438 5.73065V5.65628H19.8183V5.73065C19.8183 6.06024 19.5509 6.32767 19.2213 6.32767H19.1467V6.7532H19.2213C19.5509 6.7532 19.8183 7.02039 19.8183 7.35018V7.42479H20.2438V7.35018C20.2438 7.02039 20.511 6.7532 20.8408 6.7532H20.9152V6.32767Z" fill="white"/>
<path d="M7.96675 3.96645H7.89233C7.56255 3.96645 7.29536 3.69901 7.29536 3.36942V3.29506H6.86982V3.36942C6.86982 3.69901 6.60239 3.96645 6.2728 3.96645H6.19824V4.39198H6.2728C6.60239 4.39198 6.86982 4.65917 6.86982 4.98896V5.06357H7.29536V4.98896C7.29536 4.65917 7.56255 4.39198 7.89233 4.39198H7.96675V3.96645Z" fill="white"/>
<path d="M13.3842 1.94652H13.3098C12.98 1.94652 12.7128 1.67909 12.7128 1.3495V1.27513H12.2873V1.3495C12.2873 1.67909 12.0199 1.94652 11.6903 1.94652H11.6157V2.37206H11.6903C12.0199 2.37206 12.2873 2.63924 12.2873 2.96903V3.04364H12.7128V2.96903C12.7128 2.63924 12.98 2.37206 13.3098 2.37206H13.3842V1.94652Z" fill="white"/>
</svg>
