<svg width="30" height="29" viewBox="0 0 30 29" fill="none" xmlns="http://www.w3.org/2000/svg">
<g clip-path="url(#clip0)">
<path d="M15.0233 28.578C22.7898 28.578 29.0858 22.2821 29.0858 14.5156C29.0858 6.7491 22.7898 0.453125 15.0233 0.453125C7.25685 0.453125 0.960876 6.7491 0.960876 14.5156C0.960876 22.2821 7.25685 28.578 15.0233 28.578Z" fill="#235390"/>
<path d="M29.0858 14.5155C29.0858 12.0397 30.5327 18.9998 28.9469 16.4998L22.9999 7.69336L7.49989 22.4998L12.4999 28.578C14.5206 29.7014 12.5473 28.578 15.0233 28.578C22.7898 28.578 29.0858 22.282 29.0858 14.5155Z" fill="#235390"/>
<path d="M6.99994 8C6.99994 7.44772 7.44765 7 7.99994 7H14.9999V15H6.99994V8Z" fill="white"/>
<path d="M14.9999 7H21.9999C22.5522 7 22.9999 7.44772 22.9999 8V15H14.9999V7Z" fill="#1E90FF"/>
<path d="M14.9999 15H22.9999V22C22.9999 22.5523 22.5522 23 21.9999 23H14.9999V15Z" fill="white"/>
<path d="M6.99994 15H14.9999V23H7.99994C7.44765 23 6.99994 22.5523 6.99994 22V15Z" fill="#1E90FF"/>
<path d="M15.0287 13.5741L15.0233 13.5796V13.5728L15.0287 13.5741Z" fill="#FFDD54"/>
<path d="M10.9999 14C9.34568 14 7.99994 12.6542 7.99994 11C7.99994 9.34574 9.34568 8 10.9999 8C12.6541 8 13.9999 9.34581 13.9999 11C13.9999 12.6541 12.6541 14 10.9999 14ZM10.9999 10.0273C10.4635 10.0273 10.0273 10.4637 10.0273 11C10.0273 11.5363 10.4635 11.9727 10.9999 11.9727C11.5362 11.9727 11.9725 11.5363 11.9725 11C11.9725 10.4637 11.5362 10.0273 10.9999 10.0273Z" fill="#235390"/>
<path d="M18.3498 18.0246L14.5885 14.0132L15.0276 13.574L12.3981 13.0605L12.9939 15.6078L13.4227 15.179L17.1476 19.1518L18.3498 18.0246Z" fill="#FEBE40"/>
<path d="M18.35 18.0246L17.1481 19.1518L15.0233 16.8859V14.4766L18.35 18.0246Z" fill="#FAD87C"/>
<path d="M13.9999 17.4156L12.5844 16L10.9999 17.5844L9.41549 16L7.99994 17.4156L9.58439 19L7.99994 20.5844L9.41549 22L10.9999 20.4156L12.5844 22L13.9999 20.5844L12.4155 19L13.9999 17.4156Z" fill="white"/>
<path d="M18.8772 22C17.223 22 15.8772 20.6542 15.8772 19C15.8772 17.3457 17.2229 16 18.8772 16C20.5314 16 21.8772 17.3458 21.8772 19C21.8771 20.6542 20.5313 22 18.8772 22ZM18.8772 18.0273C18.3409 18.0273 17.9045 18.4637 17.9045 19C17.9045 19.5363 18.3408 19.9727 18.8772 19.9727C19.4135 19.9727 19.8499 19.5363 19.8499 19C19.8499 18.4636 19.4135 18.0273 18.8772 18.0273Z" fill="#235390"/>
<path d="M21.9999 9.41555L20.5844 8L18.9999 9.58451L17.4155 8L15.9999 9.41555L17.5844 11L15.9999 12.5844L17.4155 14L18.9999 12.4156L20.5844 14L21.9999 12.5844L20.4155 11L21.9999 9.41555Z" fill="white"/>
</g>
<defs>
<clipPath id="clip0">
<rect width="28.1249" height="28.1249" fill="white" transform="translate(0.960876 0.453125)"/>
</clipPath>
</defs>
</svg>
