<svg width="75" height="75" viewBox="0 0 75 75" fill="none" xmlns="http://www.w3.org/2000/svg">
<path d="M37.5 75C58.2107 75 75 58.2107 75 37.5C75 16.7893 58.2107 0 37.5 0C16.7893 0 0 16.7893 0 37.5C0 58.2107 16.7893 75 37.5 75Z" fill="#235390"/>
<path d="M75 37.4999C75 35.1396 74.7795 32.831 74.3625 30.5917L58.1386 14.3323C49.8523 5.77772 37.639 12.8618 37.3677 12.9685C37.089 12.8589 24.1973 5.37723 15.9176 15.0757L19.612 18.7819C15.4188 21.1725 10.069 25.5366 8.95779 32.5927L14.6483 38.2933C14.2283 39.5342 13.9005 40.8503 13.7543 42.186L20.4061 48.6899C20.1403 49.1385 19.9012 49.6293 19.6928 50.1655L25.946 56.4464H23.852C20.2778 56.4464 17.0464 58.5762 15.6372 61.8604L13.667 66.4511C13.7615 66.5299 13.8571 66.6061 13.9523 66.6831C14.0351 66.7499 14.1176 66.8172 14.2009 66.8834C14.3436 66.9964 14.487 67.1087 14.6317 67.2193C14.643 67.2279 14.6543 67.2365 14.6656 67.2452C14.8296 67.3704 14.9947 67.4946 15.1604 67.6177L15.1594 67.6202C21.3996 72.2561 29.1291 74.9999 37.5 74.9999C58.2107 74.9999 75 58.2106 75 37.4999Z" fill="#235390"/>
<path d="M55.9964 30.5236L65.7778 32.5927C63.8968 20.6482 49.8681 16.416 49.8681 16.416L58.818 15.0758C50.5381 5.37723 37.6465 12.8589 37.3677 12.9685C37.0889 12.8589 24.1973 5.37723 15.9176 15.0757L24.8675 16.4158C24.8675 16.4158 10.8388 20.6481 8.95779 32.5925L18.7391 30.5235C18.7391 30.5235 14.4127 36.1665 13.7544 42.1858C13.7544 42.1858 19.5778 43.1084 24.3723 45.2097C22.4017 46.0638 20.6937 47.5908 19.6929 50.1654C19.6929 50.1654 30.4151 53.3467 33.0956 55.9407H37.3679H41.6399C44.3204 53.3467 55.0427 50.1654 55.0427 50.1654C54.0419 47.5908 52.3339 46.0638 50.3632 45.2097C55.1578 43.1084 60.9811 42.1858 60.9811 42.1858C60.3227 36.1666 55.9964 30.5236 55.9964 30.5236Z" fill="white"/>
<path d="M60.9814 42.186C60.9814 42.186 55.1572 43.1089 50.3628 45.2095C52.3345 46.0635 54.0425 47.5913 55.043 50.165C55.043 50.165 44.3203 53.3467 41.6397 55.9409H37.5V12.9008C38.9092 12.1611 50.9473 5.85641 58.8179 15.0761L49.8677 16.4165C49.8677 16.4165 63.8965 20.6484 65.7774 32.5927L55.9966 30.5229C55.9966 30.5229 60.3223 36.167 60.9814 42.186Z" fill="#FFF5CB"/>
<path d="M43.8253 50.1708H31.175V66.1303H43.8253V50.1708Z" fill="#FFC473"/>
<path d="M43.8252 50.1708H37.5V66.1303H43.8252V50.1708Z" fill="#FFAA20"/>
<path d="M52.4042 30.942C51.7764 21.7 43.8947 16.4547 37.3675 16.4547C30.8403 16.4547 22.9585 21.7 22.3307 30.942C20.6417 31.2584 19.4431 32.8369 19.631 34.5724L19.9219 37.2579C20.1192 39.0797 21.7713 40.4089 23.5931 40.2116L23.9069 40.1776C27.6364 49.8856 33.6548 52.3849 37.3676 52.9527C41.0804 52.3849 47.0989 49.8855 50.8284 40.1776L51.1421 40.2116C52.964 40.4089 54.616 39.0797 54.8133 37.2579L55.1042 34.5724C55.2919 32.8369 54.0933 31.2584 52.4042 30.942Z" fill="#FFDBA9"/>
<path d="M55.1049 34.5725L54.8137 37.2586C54.6157 39.0803 52.9645 40.4089 51.1427 40.2122L50.8279 40.178C47.0991 49.886 41.0805 52.3844 37.3676 52.9524V16.4549C43.8059 16.4549 51.5622 21.5581 52.3755 30.5671C52.3873 30.6968 52.3964 30.8215 52.4043 30.9422C54.0937 31.2582 55.2924 32.8373 55.1049 34.5725Z" fill="#FFC473"/>
<path d="M35.0841 32.2733H27.3308V35.6327H35.0841V32.2733Z" fill="#FFC473"/>
<path d="M37.3669 32.2737V42.9515H40.7264V35.633H48.0448V32.2737H37.3669Z" fill="#FFA91F"/>
<path d="M60.8552 66.8393C54.448 71.9473 46.3298 75 37.4998 75C28.6697 75 20.5515 71.9473 14.1443 66.8393C14.3215 61.8823 17.8899 57.7485 22.5876 56.7026C22.636 56.6924 22.6858 56.6821 22.7356 56.6719C22.7854 56.6616 22.8337 56.6499 22.8835 56.6411C22.9026 56.6367 22.9216 56.6338 22.9392 56.6309C22.9773 56.6221 23.0183 56.6147 23.0579 56.6074C23.0666 56.606 23.074 56.6045 23.0828 56.603C23.1165 56.5972 23.1501 56.5913 23.1838 56.5884C23.2512 56.5767 23.3171 56.5664 23.386 56.5562C23.3977 56.5547 23.4124 56.5518 23.4255 56.5503C23.4416 56.5474 23.4578 56.5459 23.4753 56.543C23.5134 56.5386 23.5515 56.5327 23.5911 56.5283C23.5969 56.5269 23.6042 56.5269 23.6101 56.5254C23.6262 56.5239 23.6394 56.521 23.6555 56.521C23.6746 56.5181 23.6965 56.5151 23.717 56.5137C23.8166 56.502 23.9177 56.4932 24.0188 56.4844C24.0247 56.4844 24.0291 56.4829 24.0349 56.4829C24.0671 56.48 24.0994 56.4771 24.1331 56.4741C24.1389 56.4741 24.1477 56.4727 24.155 56.4727C24.2122 56.4697 24.2678 56.4653 24.3249 56.4624C24.4216 56.4565 24.5212 56.4521 24.6208 56.4492C24.7205 56.4478 24.8201 56.4463 24.9211 56.4463H50.0784C50.1633 56.4463 50.2483 56.4478 50.3318 56.4492H50.3787C50.3962 56.4492 50.4153 56.4507 50.4343 56.4521C50.4446 56.4521 50.4563 56.4522 50.468 56.4536C50.5369 56.4551 50.6057 56.458 50.6731 56.4624H50.6746C50.7317 56.4653 50.7873 56.4697 50.8445 56.4727C50.8518 56.4727 50.8606 56.4741 50.8664 56.4741C50.9001 56.4771 50.9324 56.48 50.9646 56.4829C50.9705 56.4829 50.9748 56.4844 50.9807 56.4844C51.0832 56.4917 51.1843 56.5005 51.2825 56.5137C51.303 56.5151 51.3249 56.5181 51.344 56.521C51.3601 56.521 51.3733 56.5239 51.3894 56.5254C51.3953 56.5269 51.4026 56.5269 51.4084 56.5283C51.448 56.5327 51.4861 56.5386 51.5242 56.543C51.5417 56.5459 51.5579 56.5474 51.574 56.5503C51.5857 56.5518 51.5989 56.5532 51.6091 56.5562H51.6135C51.7161 56.5708 51.8157 56.5869 51.9167 56.603C51.9255 56.6045 51.9329 56.606 51.9416 56.6074C51.9812 56.6147 52.0222 56.6221 52.0603 56.6309C52.1218 56.6411 52.1833 56.6543 52.2449 56.666C52.283 56.6748 52.3196 56.6821 52.3562 56.6909C52.3752 56.6938 52.3943 56.6982 52.4119 56.7026C57.1096 57.7485 60.678 61.8823 60.8552 66.8393Z" fill="#FFDBA9"/>
<path d="M60.8555 66.8393C54.4482 71.9473 46.3301 75 37.5 75V56.4463H50.0786C50.1636 56.4463 50.2485 56.4478 50.332 56.4492H50.3789C50.3965 56.4492 50.4155 56.4507 50.4346 56.4521C50.4448 56.4521 50.4565 56.4522 50.4683 56.4536C50.5371 56.4551 50.606 56.458 50.6733 56.4624H50.6748C50.7319 56.4653 50.7876 56.4697 50.8447 56.4727C50.8521 56.4727 50.8608 56.4741 50.8667 56.4741C50.9004 56.4771 50.9326 56.48 50.9648 56.4829C50.9707 56.4829 50.9751 56.4844 50.981 56.4844C51.0835 56.4917 51.1846 56.5005 51.2827 56.5137C51.3032 56.5151 51.3252 56.5181 51.3442 56.521C51.3604 56.521 51.3735 56.5239 51.3896 56.5254C51.3955 56.5269 51.4028 56.5269 51.4087 56.5283C51.4482 56.5327 51.4863 56.5386 51.5244 56.543C51.542 56.5459 51.5581 56.5474 51.5742 56.5503C51.5859 56.5518 51.5991 56.5532 51.6094 56.5562H51.6138C51.7163 56.5708 51.8159 56.5869 51.917 56.603C51.9258 56.6045 51.9331 56.606 51.9419 56.6074C51.9814 56.6147 52.0225 56.6221 52.0605 56.6309C52.1221 56.6411 52.1836 56.6543 52.2451 56.666C52.2832 56.6748 52.3198 56.6821 52.3564 56.6909C52.3755 56.6938 52.3945 56.6982 52.4121 56.7026C57.1099 57.7485 60.6782 61.8823 60.8555 66.8393Z" fill="#FFC473"/>
<path d="M47.6681 56.4463V73.604C46.3761 73.9673 45.0577 74.2632 43.713 74.4873C42.4635 74.6953 41.1935 74.8418 39.9059 74.9238C39.1105 74.9751 38.3092 75 37.5006 75C36.692 75 35.8907 74.9751 35.0953 74.9238C33.8077 74.8418 32.5377 74.6953 31.2882 74.4873C29.9435 74.2632 28.6251 73.9673 27.3331 73.604V56.4463H47.6681Z" fill="#00D9E0"/>
<path d="M47.6675 56.4463V73.604C46.3755 73.9673 45.0571 74.2632 43.7124 74.4873C42.4629 74.6953 41.1929 74.8418 39.9053 74.9238C39.1099 74.9751 38.3086 75 37.5 75V56.4463H47.6675Z" fill="#00989D"/>
<path d="M35.0949 74.9238C33.8073 74.8418 32.5373 74.6953 31.2878 74.4873C24.8762 73.418 19.0168 70.7226 14.1447 66.8393C13.985 66.7119 13.8254 66.583 13.6672 66.4512L15.6374 61.8603C17.0466 58.5762 20.278 56.4463 23.8522 56.4463H30.009L35.0949 74.9238Z" fill="white"/>
<path d="M61.3333 66.4512C61.1751 66.583 61.0154 66.7119 60.8558 66.8393C55.9837 70.7226 50.1243 73.418 43.7127 74.4873C42.4632 74.6953 41.1931 74.8418 39.9055 74.9238L44.9915 56.4463H51.1482C54.7225 56.4463 57.9539 58.5762 59.3631 61.8603L61.3333 66.4512Z" fill="#FFF5CB"/>
<path d="M31.2875 74.4873L31.9438 72.9272L23.2646 60.9067L30.0087 56.4463L35.0947 74.9238C33.8071 74.8418 32.5371 74.6953 31.2875 74.4873Z" fill="#FFF5CB"/>
<path d="M43.0564 72.9272L43.7127 74.4873C42.4632 74.6953 41.1931 74.8418 39.9055 74.9238L44.9915 56.4463L51.7356 60.9067L43.0564 72.9272Z" fill="#FFDF47"/>
<path d="M51.603 22.7051C48.5142 13.0371 37.3677 13.1836 37.3677 13.1836C37.3677 13.1836 26.2211 13.0371 23.1323 22.7051L22.1986 30.942L31.0757 22.7051L37.3675 28.5644L43.6593 22.7051L52.5365 30.942L51.603 22.7051Z" fill="white"/>
<path d="M52.5366 30.9419L43.6597 22.7051L37.5 28.44V13.1851C38.7715 13.2056 48.7134 13.6612 51.602 22.7051L52.5366 30.9419Z" fill="#FFF5CB"/>
<path d="M46.3594 46.3936C46.3594 46.3936 44.9076 46.4343 41.9724 44.4818C39.7672 43.015 38.0738 44.0965 37.3678 44.7252C36.6617 44.0965 34.9684 43.015 32.7632 44.4818C29.8279 46.4343 28.3761 46.3936 28.3761 46.3936C28.3761 46.3936 33.7133 49.8981 37.3678 46.548C41.0223 49.8983 46.3594 46.3936 46.3594 46.3936Z" fill="white"/>
<path d="M46.3594 46.393C46.3594 46.393 41.1489 49.8149 37.5 46.6655V44.6117C38.2705 43.9804 39.895 43.1 41.9722 44.4814C44.9077 46.434 46.3594 46.393 46.3594 46.393Z" fill="#FFF5CB"/>
<path d="M25.6217 32.6268V38.344C25.6217 39.9978 26.9623 41.3384 28.6161 41.3384H33.4689C34.497 41.3384 35.4101 40.681 35.7362 39.706L36.486 37.4639C36.7692 36.6171 37.967 36.6171 38.2503 37.4639L39.0001 39.706C39.3262 40.681 40.2392 41.3384 41.2674 41.3384H46.1201C47.774 41.3384 49.1146 39.9978 49.1146 38.344V32.6268H25.6217Z" fill="#49BBEE"/>
<path d="M49.1139 32.6268V38.3441C49.1139 39.998 47.7734 41.3385 46.1195 41.3385H41.267C40.2387 41.3385 39.3261 40.6808 38.9998 39.7061L38.2499 37.464C38.108 37.0405 37.7379 36.8284 37.3679 36.8284V32.6268H49.1139Z" fill="#009AE5"/>
<path d="M46.12 42.076H41.2673C39.92 42.076 38.7278 41.2176 38.3005 39.9399L37.5506 37.6979C37.5215 37.6107 37.46 37.5665 37.368 37.5665C37.276 37.5665 37.2145 37.6107 37.1853 37.698L36.4355 39.9401C36.0082 41.2177 34.8159 42.0761 33.4687 42.0761H28.616C26.5582 42.0761 24.884 40.402 24.884 38.3441V31.8895H49.852V38.3441C49.852 40.4018 48.1778 42.076 46.12 42.076ZM37.3681 36.0912C38.0975 36.0912 38.7184 36.5381 38.9497 37.2298L39.6996 39.4721C39.9255 40.1472 40.5555 40.6009 41.2674 40.6009H46.1201C47.3645 40.6009 48.377 39.5884 48.377 38.344V33.3644H26.3592V38.344C26.3592 39.5884 27.3717 40.6009 28.6161 40.6009H33.4689C34.1808 40.6009 34.8108 40.1472 35.0367 39.4721L35.7865 37.23C36.0178 36.5381 36.6386 36.0912 37.3681 36.0912Z" fill="white"/>
<path d="M37.3682 31.8892V33.3643H48.3768V38.344C48.3768 39.5887 47.3645 40.6009 46.1199 40.6009H41.2675C40.5557 40.6009 39.9257 40.1474 39.6995 39.4718L38.9497 37.2296C38.7185 36.5382 38.0979 36.0912 37.3682 36.0912V37.5663C37.4604 37.5663 37.5219 37.6106 37.5507 37.6979L38.3006 39.94C38.7277 41.2172 39.9201 42.0758 41.2673 42.0758H46.1198C48.1776 42.0758 49.8518 40.4015 49.8518 38.3439V31.889L37.3682 31.8892Z" fill="#FFF5CB"/>
<path d="M49.8517 30.5156H24.8834V32.1191H49.8517V30.5156Z" fill="#3A4DE3"/>
<path d="M49.8519 30.5156H37.3685V32.119H49.8519V30.5156Z" fill="#1C2EDE"/>
</svg>
