<svg width="25" height="25" viewBox="0 0 25 25" fill="none" xmlns="http://www.w3.org/2000/svg">
<circle cx="12.5" cy="12.5" r="12.5" fill="#C200AF"/>
<path d="M17.7969 11.3393H13.8646C13.7369 11.3393 13.6333 11.2353 13.6333 11.1071V7.16071C13.6333 6.51971 13.1155 6 12.4767 6C11.838 6 11.3202 6.51971 11.3202 7.16071V11.1071C11.3202 11.2353 11.2166 11.3393 11.0889 11.3393H7.15656C6.51785 11.3393 6 11.859 6 12.5C6 13.141 6.51785 13.6607 7.15656 13.6607H11.0889C11.2166 13.6607 11.3202 13.7647 11.3202 13.8929V17.8393C11.3202 18.4803 11.838 19 12.4767 19C13.1155 19 13.6333 18.4803 13.6333 17.8393V13.8929C13.6333 13.7647 13.7369 13.6607 13.8646 13.6607H17.7969C18.4356 13.6607 18.9535 13.141 18.9535 12.5C18.9535 11.859 18.4356 11.3393 17.7969 11.3393Z" fill="white"/>
</svg>
