<svg width="30" height="30" viewBox="0 0 30 30" fill="none" xmlns="http://www.w3.org/2000/svg">
<g clip-path="url(#clip0)">
<path d="M15 30C23.2843 30 30 23.2843 30 15C30 6.71573 23.2843 0 15 0C6.71573 0 0 6.71573 0 15C0 23.2843 6.71573 30 15 30Z" fill="#235390"/>
<path d="M30 15C30 14.0559 29.9118 13.1325 29.745 12.2367L23.2555 5.73295C19.9409 2.31114 15.0556 5.14479 14.9471 5.18744C14.8356 5.14362 9.67893 2.15094 6.36704 6.03031L7.84483 7.51279C6.16752 8.46904 4.02762 10.2147 3.58313 13.0371L5.85932 15.3174C5.69133 15.8137 5.5602 16.3402 5.50172 16.8744L8.16247 19.476C8.05612 19.6555 7.96049 19.8518 7.87712 20.0663L10.3784 22.5786H9.54083C8.11114 22.5786 6.81856 23.4305 6.25489 24.7442L5.4668 26.5805C5.5046 26.612 5.54286 26.6425 5.58094 26.6733C5.61405 26.7 5.64704 26.7269 5.68038 26.7534C5.73745 26.7986 5.79481 26.8435 5.8527 26.8878C5.85721 26.8912 5.86172 26.8947 5.86624 26.8981C5.93186 26.9482 5.9979 26.9979 6.06417 27.0471L6.06376 27.0481C8.55985 28.9025 11.6517 30 15 30C23.2843 30 30 23.2843 30 15Z" fill="#235390"/>
<path d="M22.3986 12.2095L26.3111 13.0371C25.5587 8.25934 19.9473 6.56645 19.9473 6.56645L23.5272 6.03037C20.2153 2.15094 15.0586 5.14362 14.9471 5.18744C14.8356 5.14362 9.67893 2.15094 6.36704 6.03031L9.947 6.56639C9.947 6.56639 4.33553 8.25928 3.58313 13.0371L7.49567 12.2094C7.49567 12.2094 5.7651 14.4666 5.50178 16.8744C5.50178 16.8744 7.83112 17.2434 9.74895 18.0839C8.96069 18.4256 8.27749 19.0364 7.87717 20.0662C7.87717 20.0662 12.1661 21.3387 13.2383 22.3763H14.9472H16.656C17.7282 21.3387 22.0171 20.0662 22.0171 20.0662C21.6168 19.0364 20.9336 18.4256 20.1453 18.0839C22.0631 17.2434 24.3925 16.8744 24.3925 16.8744C24.1291 14.4667 22.3986 12.2095 22.3986 12.2095Z" fill="white"/>
<path d="M24.3926 16.8744C24.3926 16.8744 22.0629 17.2436 20.1451 18.0838C20.9338 18.4254 21.617 19.0365 22.0172 20.066C22.0172 20.066 17.7281 21.3387 16.6559 22.3764H15V5.16035C15.5637 4.86445 20.3789 2.34258 23.5271 6.03047L19.9471 6.5666C19.9471 6.5666 25.5586 8.25938 26.3109 13.0371L22.3986 12.2092C22.3986 12.2092 24.1289 14.4668 24.3926 16.8744Z" fill="#FFF5CB"/>
<path d="M17.5301 20.0684H12.47V26.4522H17.5301V20.0684Z" fill="#FFC473"/>
<path d="M17.5301 20.0684H15V26.4522H17.5301V20.0684Z" fill="#FFAA20"/>
<path d="M20.9617 12.3768C20.7106 8.68003 17.5579 6.58191 14.947 6.58191C12.3361 6.58191 9.18344 8.68003 8.93231 12.3768C8.25672 12.5034 7.77725 13.1348 7.85242 13.829L7.96879 14.9032C8.04772 15.6319 8.70854 16.1636 9.43727 16.0847L9.56277 16.0711C11.0546 19.9543 13.462 20.954 14.9471 21.1811C16.4322 20.954 18.8396 19.9542 20.3314 16.0711L20.4569 16.0847C21.1856 16.1636 21.8464 15.6319 21.9254 14.9032L22.0417 13.829C22.1168 13.1348 21.6374 12.5034 20.9617 12.3768Z" fill="#FFDBA9"/>
<path d="M22.042 13.8291L21.9255 14.9035C21.8462 15.6322 21.1858 16.1636 20.4571 16.0849L20.3311 16.0713C18.8396 19.9545 16.4322 20.9539 14.947 21.181V6.58203C17.5223 6.58203 20.6249 8.62332 20.9502 12.2269C20.9549 12.2788 20.9586 12.3287 20.9617 12.377C21.6375 12.5033 22.117 13.135 22.042 13.8291Z" fill="#FFC473"/>
<path d="M14.0336 12.9094H10.9323V14.2532H14.0336V12.9094Z" fill="#FFC473"/>
<path d="M14.9468 12.9094V17.1806H16.2906V14.2532H19.2179V12.9094H14.9468Z" fill="#FFA91F"/>
<path d="M24.3421 26.7357C21.7792 28.7789 18.5319 30 14.9999 30C11.4679 30 8.2206 28.7789 5.65771 26.7357C5.72861 24.7529 7.15596 23.0994 9.03506 22.681C9.05439 22.6769 9.07432 22.6728 9.09424 22.6687C9.11416 22.6646 9.1335 22.6599 9.15342 22.6564C9.16103 22.6547 9.16865 22.6535 9.17568 22.6523C9.19092 22.6488 9.20732 22.6459 9.22314 22.6429C9.22666 22.6424 9.22959 22.6418 9.2331 22.6412C9.24658 22.6388 9.26006 22.6365 9.27353 22.6353C9.30049 22.6306 9.32685 22.6265 9.35439 22.6224C9.35908 22.6219 9.36494 22.6207 9.37021 22.6201C9.37666 22.6189 9.3831 22.6183 9.39014 22.6172C9.40537 22.6154 9.4206 22.6131 9.43642 22.6113C9.43877 22.6107 9.4417 22.6107 9.44404 22.6101C9.45049 22.6095 9.45576 22.6084 9.46221 22.6084C9.46982 22.6072 9.47861 22.606 9.48682 22.6054C9.52666 22.6008 9.56709 22.5972 9.60752 22.5937C9.60986 22.5937 9.61162 22.5931 9.61396 22.5931C9.62685 22.592 9.63974 22.5908 9.65322 22.5896C9.65557 22.5896 9.65908 22.589 9.66201 22.589C9.68486 22.5879 9.70713 22.5861 9.72998 22.5849C9.76865 22.5826 9.80849 22.5808 9.84834 22.5797C9.88818 22.5791 9.92803 22.5785 9.96846 22.5785H20.0313C20.0653 22.5785 20.0993 22.5791 20.1327 22.5797H20.1515C20.1585 22.5797 20.1661 22.5802 20.1737 22.5808C20.1778 22.5808 20.1825 22.5808 20.1872 22.5814C20.2147 22.582 20.2423 22.5832 20.2692 22.5849H20.2698C20.2927 22.5861 20.3149 22.5879 20.3378 22.589C20.3407 22.589 20.3442 22.5896 20.3466 22.5896C20.3601 22.5908 20.3729 22.592 20.3858 22.5931C20.3882 22.5931 20.3899 22.5937 20.3923 22.5937C20.4333 22.5967 20.4737 22.6002 20.513 22.6054C20.5212 22.606 20.53 22.6072 20.5376 22.6084C20.544 22.6084 20.5493 22.6095 20.5558 22.6101C20.5581 22.6107 20.561 22.6107 20.5634 22.6113C20.5792 22.6131 20.5944 22.6154 20.6097 22.6172C20.6167 22.6183 20.6231 22.6189 20.6296 22.6201C20.6343 22.6207 20.6395 22.6213 20.6436 22.6224H20.6454C20.6864 22.6283 20.7263 22.6347 20.7667 22.6412C20.7702 22.6418 20.7731 22.6424 20.7767 22.6429C20.7925 22.6459 20.8089 22.6488 20.8241 22.6523C20.8487 22.6564 20.8733 22.6617 20.8979 22.6664C20.9132 22.6699 20.9278 22.6728 20.9425 22.6763C20.9501 22.6775 20.9577 22.6793 20.9647 22.681C22.8438 23.0994 24.2712 24.7529 24.3421 26.7357Z" fill="#FFDBA9"/>
<path d="M24.3422 26.7357C21.7793 28.7789 18.532 30 15 30V22.5785H20.0314C20.0654 22.5785 20.0994 22.5791 20.1328 22.5797H20.1516C20.1586 22.5797 20.1662 22.5802 20.1738 22.5808C20.1779 22.5808 20.1826 22.5808 20.1873 22.5814C20.2148 22.582 20.2424 22.5832 20.2693 22.5849H20.2699C20.2928 22.5861 20.315 22.5879 20.3379 22.589C20.3408 22.589 20.3443 22.5896 20.3467 22.5896C20.3602 22.5908 20.373 22.592 20.3859 22.5931C20.3883 22.5931 20.39 22.5937 20.3924 22.5937C20.4334 22.5967 20.4738 22.6002 20.5131 22.6054C20.5213 22.606 20.5301 22.6072 20.5377 22.6084C20.5441 22.6084 20.5494 22.6095 20.5559 22.6101C20.5582 22.6107 20.5611 22.6107 20.5635 22.6113C20.5793 22.6131 20.5945 22.6154 20.6098 22.6172C20.6168 22.6183 20.6232 22.6189 20.6297 22.6201C20.6344 22.6207 20.6396 22.6213 20.6437 22.6224H20.6455C20.6865 22.6283 20.7264 22.6347 20.7668 22.6412C20.7703 22.6418 20.7732 22.6424 20.7768 22.6429C20.7926 22.6459 20.809 22.6488 20.8242 22.6523C20.8488 22.6564 20.8734 22.6617 20.898 22.6664C20.9133 22.6699 20.9279 22.6728 20.9426 22.6763C20.9502 22.6775 20.9578 22.6793 20.9648 22.681C22.8439 23.0994 24.2713 24.7529 24.3422 26.7357Z" fill="#FFC473"/>
<path d="M19.0672 22.5785V29.4416C18.5504 29.5869 18.0231 29.7052 17.4852 29.7949C16.9854 29.8781 16.4774 29.9367 15.9623 29.9695C15.6442 29.99 15.3237 30 15.0002 30C14.6768 30 14.3563 29.99 14.0381 29.9695C13.5231 29.9367 13.0151 29.8781 12.5153 29.7949C11.9774 29.7052 11.45 29.5869 10.9332 29.4416V22.5785H19.0672Z" fill="#00D9E0"/>
<path d="M19.067 22.5785V29.4416C18.5502 29.5869 18.0229 29.7052 17.485 29.7949C16.9852 29.8781 16.4771 29.9367 15.9621 29.9695C15.6439 29.99 15.3234 30 15 30V22.5785H19.067Z" fill="#00989D"/>
<path d="M14.038 29.9695C13.5229 29.9367 13.0149 29.8781 12.5151 29.7949C9.95045 29.3672 7.6067 28.289 5.65787 26.7357C5.59401 26.6847 5.53014 26.6332 5.46686 26.5804L6.25494 24.7441C6.81862 23.4304 8.11119 22.5785 9.54088 22.5785H12.0036L14.038 29.9695Z" fill="white"/>
<path d="M24.5333 26.5804C24.47 26.6332 24.4062 26.6847 24.3423 26.7357C22.3935 28.289 20.0497 29.3672 17.4851 29.7949C16.9853 29.8781 16.4773 29.9367 15.9622 29.9695L17.9966 22.5785H20.4593C21.889 22.5785 23.1816 23.4304 23.7452 24.7441L24.5333 26.5804Z" fill="#FFF5CB"/>
<path d="M12.515 29.7949L12.7775 29.1709L9.30585 24.3627L12.0035 22.5785L14.0379 29.9695C13.5228 29.9367 13.0148 29.8781 12.515 29.7949Z" fill="#FFF5CB"/>
<path d="M17.2226 29.1709L17.4851 29.7949C16.9853 29.8781 16.4773 29.9367 15.9622 29.9695L17.9966 22.5785L20.6943 24.3627L17.2226 29.1709Z" fill="#FFDF47"/>
<path d="M20.6412 9.08208C19.4057 5.21489 14.9471 5.27349 14.9471 5.27349C14.9471 5.27349 10.4884 5.21489 9.25293 9.08208L8.87946 12.3769L12.4303 9.08208L14.947 11.4258L17.4637 9.08208L21.0146 12.3769L20.6412 9.08208Z" fill="white"/>
<path d="M21.0146 12.3767L17.4639 9.08199L15 11.3759V5.27399C15.5086 5.28219 19.4853 5.46442 20.6408 9.08199L21.0146 12.3767Z" fill="#FFF5CB"/>
<path d="M18.5438 18.5574C18.5438 18.5574 17.9631 18.5737 16.789 17.7927C15.9069 17.206 15.2295 17.6386 14.9471 17.8901C14.6647 17.6386 13.9874 17.206 13.1053 17.7927C11.9312 18.5737 11.3505 18.5574 11.3505 18.5574C11.3505 18.5574 13.4853 19.9592 14.9471 18.6192C16.4089 19.9593 18.5438 18.5574 18.5438 18.5574Z" fill="white"/>
<path d="M18.5438 18.5572C18.5438 18.5572 16.4596 19.926 15 18.6662V17.8447C15.3082 17.5922 15.958 17.24 16.7889 17.7926C17.9631 18.5736 18.5438 18.5572 18.5438 18.5572Z" fill="#FFF5CB"/>
<path d="M10.2487 13.0508V15.3376C10.2487 15.9992 10.7849 16.5354 11.4464 16.5354H13.3875C13.7988 16.5354 14.164 16.2724 14.2944 15.8824L14.5944 14.9856C14.7076 14.6469 15.1868 14.6469 15.3001 14.9856L15.6 15.8824C15.7305 16.2724 16.0957 16.5354 16.5069 16.5354H18.448C19.1096 16.5354 19.6458 15.9992 19.6458 15.3376V13.0508H10.2487Z" fill="#49BBEE"/>
<path d="M19.6455 13.0507V15.3376C19.6455 15.9992 19.1094 16.5353 18.4478 16.5353H16.5068C16.0955 16.5353 15.7304 16.2723 15.5999 15.8824L15.2999 14.9855C15.2432 14.8161 15.0952 14.7313 14.9471 14.7313V13.0507H19.6455Z" fill="#009AE5"/>
<path d="M18.448 16.8304H16.5069C15.968 16.8304 15.4911 16.487 15.3202 15.976L15.0203 15.0792C15.0086 15.0443 14.984 15.0266 14.9472 15.0266C14.9104 15.0266 14.8858 15.0443 14.8741 15.0792L14.5742 15.976C14.4033 16.4871 13.9264 16.8305 13.3875 16.8305H11.4464C10.6233 16.8305 9.95361 16.1608 9.95361 15.3377V12.7558H19.9408V15.3377C19.9408 16.1607 19.2711 16.8304 18.448 16.8304ZM14.9473 14.4365C15.239 14.4365 15.4874 14.6153 15.5799 14.8919L15.8798 15.7888C15.9702 16.0589 16.2222 16.2404 16.507 16.2404H18.4481C18.9458 16.2404 19.3508 15.8354 19.3508 15.3376V13.3458H10.5437V15.3376C10.5437 15.8354 10.9487 16.2404 11.4465 16.2404H13.3876C13.6723 16.2404 13.9243 16.0589 14.0147 15.7888L14.3146 14.892C14.4071 14.6153 14.6555 14.4365 14.9473 14.4365Z" fill="white"/>
<path d="M14.9473 12.7557V13.3457H19.3507V15.3376C19.3507 15.8355 18.9458 16.2404 18.4479 16.2404H16.507C16.2223 16.2404 15.9703 16.0589 15.8798 15.7887L15.5798 14.8918C15.4874 14.6153 15.2391 14.4365 14.9473 14.4365V15.0265C14.9841 15.0265 15.0087 15.0442 15.0203 15.0791L15.3202 15.976C15.4911 16.4869 15.968 16.8303 16.5069 16.8303H18.4479C19.271 16.8303 19.9407 16.1606 19.9407 15.3375V12.7556L14.9473 12.7557Z" fill="#FFF5CB"/>
<path d="M19.9407 12.2062H9.95337V12.8476H19.9407V12.2062Z" fill="#3A4DE3"/>
<path d="M19.9407 12.2062H14.9474V12.8476H19.9407V12.2062Z" fill="#1C2EDE"/>
</g>
<defs>
<clipPath id="clip0">
<rect width="30" height="30" fill="white"/>
</clipPath>
</defs>
</svg>
